<svg xmlns="http://www.w3.org/2000/svg" width="287.092" height="264.488" viewBox="0 0 287.092 264.488">
  <g id="cover" transform="translate(-29.76 -49.1)">
    <g id="freepik--background-complete--inject-13" transform="translate(39.882 59.945)">
      <rect id="Rectangle_110" data-name="Rectangle 110" width="44.835" height="85.089" transform="translate(32.478 167.446)" fill="#e0e0e0"/>
      <rect id="Rectangle_111" data-name="Rectangle 111" width="21.02" height="85.089" transform="translate(56.293 167.446)" fill="#ebebeb"/>
      <rect id="Rectangle_112" data-name="Rectangle 112" width="4.028" height="9.796" transform="translate(41.883 175.45)" fill="#f5f5f5"/>
      <rect id="Rectangle_113" data-name="Rectangle 113" width="4.028" height="9.796" transform="translate(41.883 213.78)" fill="#f5f5f5"/>
      <path id="Path_67" data-name="Path 67" d="M118.936,355.776c0,.085-5.331.15-11.908.15s-11.908-.065-11.908-.15,5.331-.156,11.908-.156S118.936,355.692,118.936,355.776Z" transform="translate(-62.642 -166.685)" fill="#f5f5f5"/>
      <rect id="Rectangle_114" data-name="Rectangle 114" width="4.028" height="9.796" transform="translate(41.883 194.762)" fill="#f5f5f5"/>
      <path id="Path_68" data-name="Path 68" d="M118.936,385.406c0,.078-5.331.15-11.908.15s-11.908-.072-11.908-.15,5.331-.156,11.908-.156S118.936,385.322,118.936,385.406Z" transform="translate(-62.642 -177.003)" fill="#f5f5f5"/>
      <rect id="Rectangle_115" data-name="Rectangle 115" width="4.028" height="9.796" transform="translate(60.758 175.45)" fill="#e0e0e0"/>
      <rect id="Rectangle_116" data-name="Rectangle 116" width="4.028" height="9.796" transform="translate(69.505 175.45)" fill="#e0e0e0"/>
      <rect id="Rectangle_117" data-name="Rectangle 117" width="4.028" height="9.796" transform="translate(60.758 194.038)" fill="#e0e0e0"/>
      <rect id="Rectangle_118" data-name="Rectangle 118" width="4.028" height="9.796" transform="translate(69.505 194.038)" fill="#e0e0e0"/>
      <rect id="Rectangle_119" data-name="Rectangle 119" width="4.028" height="9.796" transform="translate(60.758 212.62)" fill="#e0e0e0"/>
      <rect id="Rectangle_120" data-name="Rectangle 120" width="4.028" height="9.796" transform="translate(69.505 212.62)" fill="#e0e0e0"/>
      <rect id="Rectangle_121" data-name="Rectangle 121" width="51.575" height="2.131" transform="translate(29.108 165.386)" fill="#e0e0e0"/>
      <path id="Path_69" data-name="Path 69" d="M140.477,322.99c0,.085-10.018.15-22.375.15s-22.382-.065-22.382-.15,10.018-.15,22.382-.15S140.477,322.905,140.477,322.99Z" transform="translate(-62.851 -155.27)" fill="#ebebeb"/>
      <rect id="Rectangle_122" data-name="Rectangle 122" width="40.136" height="52.937" transform="translate(3.018 199.357)" fill="#ebebeb"/>
      <rect id="Rectangle_123" data-name="Rectangle 123" width="18.817" height="52.937" transform="translate(24.337 199.357)" fill="#e0e0e0"/>
      <rect id="Rectangle_124" data-name="Rectangle 124" width="3.611" height="8.766" transform="translate(11.432 206.526)" fill="#f5f5f5"/>
      <rect id="Rectangle_125" data-name="Rectangle 125" width="3.611" height="8.766" transform="translate(11.432 240.842)" fill="#f5f5f5"/>
      <path id="Path_70" data-name="Path 70" d="M71.239,401.242c0,.1-4.777.176-10.663.176s-10.656-.078-10.656-.176,4.771-.182,10.656-.182S71.239,401.145,71.239,401.242Z" transform="translate(-46.902 -182.509)" fill="#f5f5f5"/>
      <rect id="Rectangle_126" data-name="Rectangle 126" width="3.611" height="8.766" transform="translate(11.432 223.811)" fill="#f5f5f5"/>
      <path id="Path_71" data-name="Path 71" d="M71.239,427.766c0,.1-4.777.182-10.663.182s-10.656-.085-10.656-.182,4.771-.176,10.656-.176S71.239,427.668,71.239,427.766Z" transform="translate(-46.902 -191.747)" fill="#f5f5f5"/>
      <rect id="Rectangle_127" data-name="Rectangle 127" width="3.611" height="8.766" transform="translate(28.332 206.526)" fill="#f5f5f5"/>
      <rect id="Rectangle_128" data-name="Rectangle 128" width="3.611" height="8.766" transform="translate(36.16 206.526)" fill="#f5f5f5"/>
      <rect id="Rectangle_129" data-name="Rectangle 129" width="3.611" height="8.766" transform="translate(28.332 223.159)" fill="#f5f5f5"/>
      <rect id="Rectangle_130" data-name="Rectangle 130" width="3.611" height="8.766" transform="translate(36.16 223.159)" fill="#f5f5f5"/>
      <rect id="Rectangle_131" data-name="Rectangle 131" width="3.611" height="8.766" transform="translate(28.332 239.799)" fill="#f5f5f5"/>
      <rect id="Rectangle_132" data-name="Rectangle 132" width="3.611" height="8.766" transform="translate(36.16 239.799)" fill="#f5f5f5"/>
      <rect id="Rectangle_133" data-name="Rectangle 133" width="46.171" height="1.91" transform="translate(0 197.512)" fill="#e0e0e0"/>
      <path id="Path_72" data-name="Path 72" d="M90.521,371.9c0,.1-8.968.176-20.035.176S50.45,372,50.45,371.9s8.968-.182,20.035-.182S90.521,371.8,90.521,371.9Z" transform="translate(-47.087 -172.292)" fill="#ebebeb"/>
      <path id="Path_73" data-name="Path 73" d="M80.872,66.085s-6.387,1.955-.5,15.642a176.658,176.658,0,0,0,10.155,20.615s1,3.161-1.629,3.467-8.284-.984-9.646,2.118c-1.421,3.213.769,6.479,5.436,9.522s14.652,10.1,15.558,10.735,1.714,2.131-.046,2.607-14.7,1.01-14.1,7.137,14.991,12.475,16.568,13.2,1.9,1.427,1.708,2.3-4.562.652-8.225.912-7.886,1.271-7.248,4.771,8.91,11.328,29.981,14.815l9.881.978,5.957-7.971c11.667-17.911,11.478-29.284,9.327-32.126s-5.716-.4-8.414,2.112-5.462,5.9-6.231,5.455-1.062-1.18-.541-2.816,5.56-16.555,1.447-21.13-13.211,4.628-14.763,5.592-2.092-.652-1.955-1.74,1.682-13.224,2.607-18.725,0-9.314-3.35-10.428c-3.213-1.088-6.081,3.956-8.075,5.683s-3.663-1.141-3.663-1.141-2.2-7.821-8.343-21.4S80.741,66.131,80.741,66.131" transform="translate(-56.639 -65.74)" fill="#ebebeb"/>
      <path id="Path_74" data-name="Path 74" d="M133.564,184.019c-4.471-10.018-12.123-27.961-18.771-43.33s-12.67-29.264-17.1-39.308L92.483,89.5c-.613-1.395-1.095-2.483-1.421-3.259l-.365-.847L90.58,85.1a2.345,2.345,0,0,1,.143.28c.1.2.228.476.391.834l1.48,3.207c1.3,2.79,3.1,6.837,5.338,11.849,4.471,10.018,10.533,23.907,17.181,39.269S129.373,173.865,133.8,183.9" transform="translate(-61.061 -72.482)" fill="#e0e0e0"/>
      <path id="Path_75" data-name="Path 75" d="M92,133.73a3.14,3.14,0,0,1,.652.241c.43.169,1.043.43,1.8.763,1.506.652,3.565,1.649,5.814,2.77l5.755,2.887,1.753.86a2.921,2.921,0,0,1,.652.345,3.3,3.3,0,0,1-.652-.235c-.43-.169-1.043-.437-1.792-.776-1.5-.684-3.546-1.688-5.8-2.809l-5.775-2.842-1.753-.854A3.349,3.349,0,0,1,92,133.73Z" transform="translate(-61.556 -89.416)" fill="#e0e0e0"/>
      <path id="Path_76" data-name="Path 76" d="M118.319,134.624c-.078-.039,1.747-4.367,4.08-9.679s4.289-9.588,4.367-9.555-1.753,4.367-4.087,9.679S118.4,134.689,118.319,134.624Z" transform="translate(-70.72 -83.03)" fill="#e0e0e0"/>
      <path id="Path_77" data-name="Path 77" d="M132.34,173.943a3.722,3.722,0,0,1,.443-.587l1.3-1.525c1.082-1.3,2.561-3.083,4.126-5.116s2.92-3.911,3.911-5.286l1.147-1.629a4.129,4.129,0,0,1,.45-.58,2.94,2.94,0,0,1-.352.652c-.241.4-.606.984-1.069,1.688-.926,1.4-2.255,3.318-3.826,5.351s-3.076,3.813-4.2,5.071c-.567.652-1.03,1.128-1.356,1.46A3.26,3.26,0,0,1,132.34,173.943Z" transform="translate(-75.603 -98.293)" fill="#e0e0e0"/>
      <path id="Path_78" data-name="Path 78" d="M106.33,177a2.607,2.607,0,0,1,.652.052l1.825.267c1.538.241,3.656.593,5.99,1s4.452.789,5.983,1.082l1.805.365a2.392,2.392,0,0,1,.652.176,2.921,2.921,0,0,1-.652-.059l-1.818-.267c-1.538-.235-3.656-.587-6-1s-4.452-.789-5.977-1.082l-1.805-.365A2.992,2.992,0,0,1,106.33,177Z" transform="translate(-66.546 -104.483)" fill="#e0e0e0"/>
      <path id="Path_79" data-name="Path 79" d="M114.57,211.1a5.167,5.167,0,0,1,.86.085l2.34.332c1.955.293,4.693.723,7.691,1.212s5.716.958,7.678,1.3l2.32.43a4.687,4.687,0,0,1,.841.2,5.213,5.213,0,0,1-.86-.085l-2.34-.332c-1.955-.293-4.686-.723-7.691-1.212s-5.71-.952-7.678-1.3l-2.32-.43a4.067,4.067,0,0,1-.841-.2Z" transform="translate(-69.415 -116.359)" fill="#e0e0e0"/>
      <path id="Path_80" data-name="Path 80" d="M147.15,206.024a6.447,6.447,0,0,1,.547-.756l1.551-1.994c1.3-1.682,3.1-4.015,5.019-6.648s3.585-5.058,4.784-6.824c.58-.847,1.056-1.551,1.421-2.092a5.99,5.99,0,0,1,.554-.75,6.016,6.016,0,0,1-.45.815c-.306.515-.763,1.245-1.343,2.144-1.154,1.8-2.8,4.25-4.719,6.889s-3.748,4.953-5.1,6.6c-.652.828-1.238,1.486-1.629,1.955A5.28,5.28,0,0,1,147.15,206.024Z" transform="translate(-80.761 -107.953)" fill="#e0e0e0"/>
      <path id="Path_81" data-name="Path 81" d="M366.4,227.109c-13.2-9.223-16.2-26.345-15.675-41.713.085-2.568-.2-5.279,1.023-7.534s4.074-3.793,6.374-2.711c1.91.9,2.744,3.122,3.806,4.953a14.99,14.99,0,0,0,6.029,5.755c1.636.847,3.656,1.369,5.273.476,2.216-1.219,2.477-4.282,2.464-6.837q-.046-7.169-.091-14.287a25.049,25.049,0,0,1,.769-7.587,7.869,7.869,0,0,1,4.986-5.358c2.431-.678,5.436.717,5.944,3.22a24.593,24.593,0,0,1,.078,3.181,2.688,2.688,0,0,0,1.571,2.529c1.01.293,2.04-.424,2.8-1.173a34.169,34.169,0,0,0,6.1-9.21,46.89,46.89,0,0,1,5.69-9.5c2.392-2.816,5.7-5.038,9.359-5.247s7.561,2.053,8.473,5.644-1.173,7.254-3.461,10.174A57.159,57.159,0,0,1,406.036,163.2a4.693,4.693,0,0,0-1.988,2.138c-.554,1.7,1.062,3.4,2.744,3.956,1.9.652,3.969.437,5.964.652s4.145,1.115,4.9,2.992c1.049,2.607-1.134,5.351-3.259,7.169a48.838,48.838,0,0,1-14.463,8.349,16.716,16.716,0,0,0-5.371,2.607c-1.512,1.3-2.431,3.617-1.519,5.416s3.259,2.372,5.214,2.007,3.728-1.434,5.605-2.138c3.513-1.3,8.043-1.082,10.3,1.955a8.15,8.15,0,0,1,.86,7.169,18.41,18.41,0,0,1-3.878,6.316,49.114,49.114,0,0,1-20.974,14.743c-8.141,2.822-15.695,3.591-23.79.652" transform="translate(-151.631 -90.224)" fill="#f5f5f5"/>
      <path id="Path_82" data-name="Path 82" d="M374.49,239.667a112.436,112.436,0,0,1,4.178-21.033,227.475,227.475,0,0,1,9.086-24.65c.919-2.138,1.818-4.256,2.711-6.335s1.786-4.145,2.777-6.107a115.981,115.981,0,0,1,6.355-10.95c2.19-3.383,4.393-6.518,6.472-9.431s4.08-5.586,6-7.945a91.561,91.561,0,0,1,9.894-10.461c1.258-1.134,2.268-1.955,2.959-2.555l.789-.652a1.634,1.634,0,0,1,.28-.209,1.956,1.956,0,0,1-.248.241l-.763.652c-.652.593-1.655,1.466-2.894,2.607a97.12,97.12,0,0,0-9.777,10.539c-1.9,2.366-3.871,5.045-5.944,7.965s-4.25,6.055-6.42,9.438a115.561,115.561,0,0,0-6.309,10.924c-.984,1.955-1.858,4-2.757,6.081s-1.792,4.2-2.711,6.335a234.224,234.224,0,0,0-9.125,24.585,113.876,113.876,0,0,0-4.223,20.994" transform="translate(-159.927 -91.37)" fill="#e0e0e0"/>
      <path id="Path_83" data-name="Path 83" d="M401.478,188.981a5.305,5.305,0,0,1-.248-1.095c-.137-.7-.293-1.734-.476-3-.358-2.542-.743-6.074-1.141-9.966s-.834-7.411-1.232-9.946c-.2-1.264-.365-2.288-.489-2.992a4.944,4.944,0,0,1-.143-1.108,5.322,5.322,0,0,1,.319,1.069c.182.7.4,1.714.652,2.979.482,2.522.965,6.048,1.369,9.946s.737,7.319,1.01,9.979c.124,1.2.235,2.209.319,3.018a4.992,4.992,0,0,1,.059,1.121Z" transform="translate(-168.027 -98.867)" fill="#e0e0e0"/>
      <path id="Path_84" data-name="Path 84" d="M436.312,194.585a7.254,7.254,0,0,1-1.3.156c-.841.072-2.06.176-3.565.352-3.011.319-7.169.919-11.686,1.773s-8.616,1.818-11.543,2.607c-1.466.378-2.646.717-3.461.945a7.6,7.6,0,0,1-1.3.319,6.693,6.693,0,0,1,1.225-.5c.8-.28,1.955-.652,3.428-1.088,2.913-.867,6.993-1.877,11.543-2.744a115.765,115.765,0,0,1,11.732-1.642c1.512-.13,2.744-.183,3.591-.2A6.093,6.093,0,0,1,436.312,194.585Z" transform="translate(-170.012 -110.591)" fill="#e0e0e0"/>
      <path id="Path_85" data-name="Path 85" d="M372.671,237.584a2.7,2.7,0,0,1-.228-.4L371.883,236c-.482-1.036-1.147-2.555-1.955-4.432-1.584-3.767-3.611-9.034-5.768-14.873s-4.132-11.126-5.638-14.919l-1.792-4.484-.482-1.219a1.862,1.862,0,0,1-.137-.443,1.694,1.694,0,0,1,.222.4c.156.319.339.71.567,1.186.482,1.036,1.141,2.548,1.955,4.432,1.59,3.761,3.611,9.027,5.768,14.873s4.132,11.119,5.638,14.913l1.792,4.484c.2.489.352.893.482,1.225a2.08,2.08,0,0,1,.137.437Z" transform="translate(-153.527 -110.972)" fill="#e0e0e0"/>
      <path id="Path_86" data-name="Path 86" d="M425.162,238.45a1.686,1.686,0,0,1-.43.176l-1.271.424-4.673,1.519c-3.95,1.3-9.379,3.109-15.375,5.142s-11.458,3.813-15.427,5.012c-1.988.6-3.6,1.069-4.725,1.369l-1.3.339a1.513,1.513,0,0,1-.456.085,2.051,2.051,0,0,1,.43-.176l1.264-.424,4.68-1.519c3.943-1.3,9.379-3.109,15.375-5.142s11.452-3.813,15.427-5.012c1.988-.6,3.6-1.069,4.719-1.369l1.3-.339A1.486,1.486,0,0,1,425.162,238.45Z" transform="translate(-162.368 -125.883)" fill="#e0e0e0"/>
    </g>
    <g id="freepik--Floor--inject-13" transform="translate(29.76 313.243)">
      <path id="Path_87" data-name="Path 87" d="M316.852,454.546c0,.091-64.271.169-143.539.169s-143.552-.078-143.552-.169,64.258-.176,143.552-.176S316.852,454.448,316.852,454.546Z" transform="translate(-29.76 -454.37)" fill="#263238"/>
    </g>
    <g id="freepik--Plants--inject-13" transform="translate(45.51 71.688)">
      <path id="Path_88" data-name="Path 88" d="M117.4,259.642c10.357-10.428,10.246-26.345,7.261-40.1-.5-2.3-.691-4.784-2.157-6.609s-4.289-2.744-6.179-1.395c-1.571,1.121-1.955,3.259-2.607,5.077a13.687,13.687,0,0,1-4.478,6.166c-1.3,1.03-3.063,1.825-4.66,1.3-2.2-.737-2.933-3.448-3.337-5.749q-1.121-6.433-2.262-12.859a21.229,21.229,0,0,0-1.955-6.7,7.272,7.272,0,0,0-5.358-4c-2.3-.215-4.771,1.538-4.823,3.872a21.781,21.781,0,0,0,.456,2.874,2.455,2.455,0,0,1-1,2.529,2.85,2.85,0,0,1-2.718-.593,30.7,30.7,0,0,1-6.993-7.28,42.4,42.4,0,0,0-6.674-7.613c-2.614-2.138-5.951-3.6-9.275-3.194s-6.466,3.089-6.707,6.466,2.249,6.335,4.777,8.584a51.966,51.966,0,0,0,12.534,8.232,4.282,4.282,0,0,1,2.138,1.6c.776,1.44-.4,3.226-1.818,4.008-1.61.88-3.5,1.043-5.253,1.577s-3.546,1.682-3.911,3.5c-.515,2.522,1.9,4.621,4.126,5.866a44.646,44.646,0,0,0,14.339,5.136,15.093,15.093,0,0,1,5.26,1.466c1.577.939,2.777,2.855,2.249,4.628S85.832,239.105,84,239.1a28.647,28.647,0,0,1-5.39-1.01c-3.376-.613-7.417.345-8.942,3.441a7.46,7.46,0,0,0,.4,6.576,17.03,17.03,0,0,0,4.523,5.038,44.868,44.868,0,0,0,21.28,9.822c7.782,1.206,14.7.652,21.508-3.331" transform="translate(-53.925 -119.118)" fill="#1acebb"/>
      <path id="Path_89" data-name="Path 89" d="M120.932,271.34a102.19,102.19,0,0,0-7.2-18.25,209.444,209.444,0,0,0-12.214-20.681l-3.474-5.253c-1.147-1.727-2.288-3.435-3.5-5.032a104.934,104.934,0,0,0-7.508-8.825c-2.522-2.685-5.012-5.136-7.358-7.417s-4.562-4.36-6.707-6.166a82,82,0,0,0-10.611-7.782c-1.3-.821-2.366-1.421-3.076-1.818l-.815-.45a1.42,1.42,0,0,0-.287-.137,1.955,1.955,0,0,0,.267.176l.789.489c.7.417,1.734,1.043,3.037,1.884a87.5,87.5,0,0,1,10.5,7.873c2.1,1.818,4.315,3.911,6.655,6.185s4.81,4.758,7.319,7.443a105,105,0,0,1,7.463,8.786c1.206,1.6,2.327,3.259,3.474,5.019s2.3,3.48,3.48,5.253a214.543,214.543,0,0,1,12.214,20.615,104.414,104.414,0,0,1,7.254,18.171" transform="translate(-55.407 -120.59)" fill="#263238"/>
      <path id="Path_90" data-name="Path 90" d="M113.007,225.733a4.281,4.281,0,0,0,.046-1.017c0-.652,0-1.61-.065-2.783-.091-2.346-.332-5.586-.606-9.125s-.463-6.8-.521-9.125c0-1.167-.046-2.118-.052-2.77a4.1,4.1,0,0,0-.052-1.023,5.214,5.214,0,0,0-.111,1.017c-.052.652-.078,1.6-.085,2.777,0,2.353.117,5.6.4,9.177s.534,6.7.723,9.125c.085,1.095.15,2.02.2,2.77a4.379,4.379,0,0,0,.124.978Z" transform="translate(-73.995 -124.198)" fill="#263238"/>
      <path id="Path_91" data-name="Path 91" d="M66.91,238.742a7.169,7.169,0,0,0,1.206-.072c.769-.072,1.884-.182,3.259-.267,2.757-.2,6.576-.345,10.8-.319s8.043.222,10.806.443c1.382.1,2.5.209,3.259.28a5.776,5.776,0,0,0,1.206.072,7.171,7.171,0,0,0-1.186-.241c-.763-.117-1.877-.28-3.259-.417-2.764-.3-6.6-.541-10.832-.574a105.591,105.591,0,0,0-10.826.45c-1.382.124-2.5.28-3.259.4A5.768,5.768,0,0,0,66.91,238.742Z" transform="translate(-58.447 -137.344)" fill="#263238"/>
      <path id="Path_92" data-name="Path 92" d="M142.7,264.7a1.955,1.955,0,0,0,.137-.4l.313-1.16c.261-1.01.606-2.483,1.01-4.3.808-3.65,1.766-8.714,2.75-14.339s1.9-10.676,2.607-14.339c.358-1.779.652-3.259.88-4.328.091-.469.169-.86.235-1.18a1.806,1.806,0,0,0,.052-.417,2.336,2.336,0,0,0-.137.4l-.313,1.16c-.267,1.01-.613,2.477-1.017,4.3-.808,3.643-1.766,8.714-2.75,14.339s-1.89,10.683-2.607,14.339c-.365,1.773-.652,3.259-.88,4.321-.1.476-.169.867-.235,1.18A1.838,1.838,0,0,0,142.7,264.7Z" transform="translate(-84.839 -132.677)" fill="#263238"/>
      <path id="Path_93" data-name="Path 93" d="M78.93,277.868a2.062,2.062,0,0,0,.417.085l1.212.176,4.452.6c3.761.5,8.942,1.258,14.671,2.1s10.924,1.558,14.7,1.955c1.884.215,3.409.371,4.465.463l1.219.091a1.661,1.661,0,0,0,.43,0,1.428,1.428,0,0,0-.417-.091l-1.212-.176-4.452-.593c-3.761-.508-8.942-1.264-14.671-2.105s-10.924-1.558-14.691-1.955c-1.89-.215-3.415-.372-4.471-.463l-1.219-.091a1.213,1.213,0,0,0-.43.007Z" transform="translate(-62.633 -151.344)" fill="#263238"/>
      <path id="Path_94" data-name="Path 94" d="M329.56,110.607a7.261,7.261,0,0,0,2.5-6.844,9.646,9.646,0,0,0-4.152-6.179,4.079,4.079,0,0,0-3.3-.86,3.083,3.083,0,0,0-2.007,2.418,6.237,6.237,0,0,0,.378,3.259c1.232,3.572,3.083,6.8,6.589,8.219" transform="translate(-147.459 -88.236)" fill="#455a64"/>
      <path id="Path_95" data-name="Path 95" d="M338.3,125.135a16.979,16.979,0,0,1,14.991-3.911c1.336.306,2.835,1.017,3.057,2.366s-.991,2.5-2.177,3.187a14.489,14.489,0,0,1-16.034-1.3" transform="translate(-152.897 -96.663)" fill="#455a64"/>
      <path id="Path_96" data-name="Path 96" d="M359.974,83.987a8.473,8.473,0,0,0-6.563,1.128,14.938,14.938,0,0,0-4.693,4.9c-2.366,3.735-3.194,8.747-3.3,13.159,4.895-.2,9.086-4.047,11.08-6.133,3.161-3.3,6.876-11.184,3.467-13.035" transform="translate(-155.432 -83.756)" fill="#455a64"/>
      <path id="Path_97" data-name="Path 97" d="M327,126.467a16.947,16.947,0,0,0,1.219-1.845,30.973,30.973,0,0,0,2.763-7.867,15.643,15.643,0,0,0-.613-8.3,10.313,10.313,0,0,0-1.186-2.249c-.352-.489-.58-.723-.606-.7a21.643,21.643,0,0,1,1.466,3.076,16.385,16.385,0,0,1,.45,8.088,36.23,36.23,0,0,1-2.607,7.821" transform="translate(-149.018 -91.328)" fill="#263238"/>
      <path id="Path_98" data-name="Path 98" d="M326.916,122.166l2.548-3.259c2.151-2.783,5.123-6.622,8.473-10.813s6.42-7.952,8.655-10.669l2.64-3.22a8.568,8.568,0,0,0,.919-1.225,9.519,9.519,0,0,0-1.075,1.069c-.652.723-1.6,1.792-2.757,3.122-2.307,2.653-5.429,6.381-8.773,10.578s-6.283,8.075-8.362,10.917c-1.036,1.421-1.864,2.607-2.425,3.389" transform="translate(-148.934 -86.968)" fill="#263238"/>
      <path id="Path_99" data-name="Path 99" d="M346.236,125.528a3.123,3.123,0,0,0-.854-.261,7.171,7.171,0,0,0-1.023-.2,12.505,12.505,0,0,0-1.375-.15,18.334,18.334,0,0,0-3.6.137,19.038,19.038,0,0,0-8.173,3.161,17.971,17.971,0,0,0-2.75,2.333,11.958,11.958,0,0,0-.913,1.036,6.471,6.471,0,0,0-.652.841c-.319.476-.274.7-.248.717a30.212,30.212,0,0,1,2.027-2.346,19.761,19.761,0,0,1,2.757-2.2,22.363,22.363,0,0,1,3.826-1.955,22.049,22.049,0,0,1,4.158-1.121,20.062,20.062,0,0,1,3.52-.241C344.984,125.326,346.216,125.613,346.236,125.528Z" transform="translate(-148.89 -98.08)" fill="#263238"/>
    </g>
    <g id="freepik--Device--inject-13" transform="translate(98.71 49.1)">
      <path id="Path_100" data-name="Path 100" d="M241.7,313.334l-87.252-.4a19.25,19.25,0,0,1-18.9-19.612l.945-224.769c.046-10.787,8.59-19.5,19.09-19.449l87.252.4a19.25,19.25,0,0,1,18.9,19.612l-.952,224.769A19.257,19.257,0,0,1,241.7,313.334Z" transform="translate(-135.55 -49.1)" fill="#263238"/>
      <path id="Path_101" data-name="Path 101" d="M316.5,363.1a1.923,1.923,0,1,1-1.916-1.923A1.923,1.923,0,0,1,316.5,363.1Z" transform="translate(-197.221 -157.775)" fill="#e0e0e0"/>
      <path id="Path_102" data-name="Path 102" d="M315.519,368.347a13.205,13.205,0,0,1,0-4.217A13.205,13.205,0,0,1,315.519,368.347Z" transform="translate(-198.162 -158.803)" fill="#e0e0e0"/>
      <path id="Path_103" data-name="Path 103" d="M246.967,60.881l-17.448-.065a4.334,4.334,0,0,0-4.256,4.412v3.161a4.334,4.334,0,0,1-4.256,4.4l-34.016-.156a4.341,4.341,0,0,1-4.217-4.452V65.019a4.334,4.334,0,0,0-4.217-4.452h-6.14l-15.284-.1a13.726,13.726,0,0,0-13.791,13.687l-.932,220.227A13.726,13.726,0,0,0,156.1,308.175l89.82.417a13.733,13.733,0,0,0,13.791-13.687l.925-220.233A13.739,13.739,0,0,0,246.967,60.881Z" transform="translate(-137.938 -53.059)" fill="#fafafa"/>
      <path id="Path_104" data-name="Path 104" d="M148.536,306.9c.769-.574,38.331-17.122,38.331-17.122L142.99,267.89l-.15,35.267Z" transform="translate(-138.088 -125.289)" fill="#ebebeb"/>
      <path id="Path_105" data-name="Path 105" d="M150.921,247.969,182.93,231.7,148.536,212.63l-5.305,1.33-.13,30.855Z" transform="translate(-138.179 -106.046)" fill="#1acebb"/>
      <path id="Path_106" data-name="Path 106" d="M150.921,247.969,182.93,231.7,148.536,212.63l-5.305,1.33-.13,30.855Z" transform="translate(-138.179 -106.046)" fill="#fff" opacity="0.7"/>
      <path id="Path_107" data-name="Path 107" d="M145.07,167.543l98.658-46.08L145.982,89.52Z" transform="translate(-138.865 -63.175)" fill="#ebebeb"/>
      <path id="Path_108" data-name="Path 108" d="M143.31,380.988l45.083-23.138,67.113,39.484-15.988,14.02H182.247l-38.937-23.8Z" transform="translate(-138.252 -156.616)" fill="#ebebeb"/>
      <path id="Path_109" data-name="Path 109" d="M226.1,345.673l55.752,33.058,6.218-.7V346.24l-30.555-16.17Z" transform="translate(-167.082 -146.942)" fill="#ebebeb"/>
      <path id="Path_110" data-name="Path 110" d="M240.16,296.373l52.565,29.571V287.287l-19.019-8.147Z" transform="translate(-171.978 -129.207)" fill="#ebebeb"/>
      <path id="Path_111" data-name="Path 111" d="M154.02,321.185l30.835,16.92,37.425-19.384L192.546,303.6Z" transform="translate(-141.982 -137.724)" fill="#ebebeb"/>
      <path id="Path_112" data-name="Path 112" d="M225.04,232.2l43.682,21.645L288.979,243.5l.13-14.508L259.6,214.67Z" transform="translate(-166.713 -106.756)" fill="#ebebeb"/>
      <path id="Path_113" data-name="Path 113" d="M156.5,261.166l43.682,21.645,20.257-10.344.13-14.508L191.057,243.64Z" transform="translate(-142.845 -116.844)" fill="#ebebeb"/>
      <path id="Path_114" data-name="Path 114" d="M165.78,202.455l35.6,17.826,33.2-17.826-34.4-15.695Z" transform="translate(-146.077 -97.037)" fill="#ebebeb"/>
      <path id="Path_115" data-name="Path 115" d="M230.642,310.085a4.382,4.382,0,0,1-.652-.326l-1.838-1.036-7.072-4.087-26.175-15.349-.541-.319.561-.287,34.342-17.454v.8l-25.641-13.687-.808-.43.815-.43,35.613-18.693v.906L235,237.537,155.22,197.062l-.75-.378.763-.365,42.365-20.2,11.732-5.534,3.089-1.421.8-.352a1.42,1.42,0,0,1,.28-.1,1.056,1.056,0,0,1-.254.156l-.769.4-3.057,1.584L197.767,176.6l-42.176,20.511v-.769l79.861,40.3,4.25,2.151.88.45-.873.456L204.07,258.348v-.86l25.608,13.739.756.4-.763.385L195.225,289.3v-.606l26.019,15.642,6.974,4.243,1.792,1.121a3.706,3.706,0,0,1,.632.385Z" transform="translate(-142.138 -90.752)" fill="#1acebb"/>
      <path id="Path_116" data-name="Path 116" d="M249.727,132.095c0-6.518-6.831-10.624-13.8-7.365a7.906,7.906,0,0,0-3.663,3.513c-1.753,3.4-.978,7.274.606,10.493l5.423,13.739a2.333,2.333,0,0,0,4.354,0l5.312-13.811C249.8,134.441,249.727,132.095,249.727,132.095Zm-6.518,5.657c-4.686,2.724-9.431-2.307-6.863-7.274a3.911,3.911,0,0,1,1.486-1.577c4.686-2.724,9.431,2.307,6.863,7.274a3.911,3.911,0,0,1-1.512,1.577Z" transform="translate(-168.881 -75.039)" fill="#1acebb"/>
      <path id="Path_117" data-name="Path 117" d="M243.546,241.678,243.39,234l20.016,9.692v7.978Z" transform="translate(-173.103 -113.488)" fill="#f5f5f5"/>
      <path id="Path_118" data-name="Path 118" d="M274.1,242.271l24.858-12.351v8.6L274.1,250.249Z" transform="translate(-183.797 -112.067)" fill="#e0e0e0"/>
      <path id="Path_119" data-name="Path 119" d="M243.39,227.481l24.4-12.2,20.479,9.542-24.858,12.351Z" transform="translate(-173.103 -106.969)" fill="#f5f5f5"/>
      <path id="Path_120" data-name="Path 120" d="M247.4,239.09v3.722l1.955.88v-3.559Z" transform="translate(-174.499 -115.26)" fill="#fafafa"/>
      <path id="Path_121" data-name="Path 121" d="M252.2,241.2v3.728l1.962.88v-3.559Z" transform="translate(-176.171 -115.995)" fill="#fafafa"/>
      <path id="Path_122" data-name="Path 122" d="M147.01,166.112V156.12L170.7,167.6v9.438Z" transform="translate(-139.54 -86.367)" fill="#e0e0e0"/>
      <path id="Path_123" data-name="Path 123" d="M183.36,165.916l29.434-14.626v10.181L183.36,175.353Z" transform="translate(-152.199 -84.685)" fill="#f5f5f5"/>
      <path id="Path_124" data-name="Path 124" d="M147.01,148.407l28.873-14.437,24.252,11.289L170.7,159.884Z" transform="translate(-139.54 -78.654)" fill="#fafafa"/>
      <path id="Path_125" data-name="Path 125" d="M151.76,162.14v4.412l2.314,1.043v-4.217Z" transform="translate(-141.195 -88.464)" fill="#fafafa"/>
      <path id="Path_126" data-name="Path 126" d="M157.44,164.65v4.406l2.32,1.049v-4.217Z" transform="translate(-143.172 -89.338)" fill="#fafafa"/>
      <path id="Path_127" data-name="Path 127" d="M256.59,299.59v7.873l8.473,4.165v-8.134Z" transform="translate(-177.699 -136.328)" fill="#e0e0e0"/>
      <path id="Path_128" data-name="Path 128" d="M280.327,297.67l-10.787,5.155v8.134l10.787-6.022Z" transform="translate(-182.209 -135.659)" fill="#e0e0e0"/>
      <path id="Path_129" data-name="Path 129" d="M256.59,296.822l10.689-5.182,8.538,3.93-10.787,5.155Z" transform="translate(-177.699 -133.56)" fill="#f5f5f5"/>
      <path id="Path_130" data-name="Path 130" d="M261.19,308.26v3.722l1.955.886v-3.559Z" transform="translate(-179.301 -139.347)" fill="#fafafa"/>
      <path id="Path_131" data-name="Path 131" d="M151.94,293.34v7.873l8.44,4.165v-8.134Z" transform="translate(-141.257 -134.152)" fill="#e0e0e0"/>
      <path id="Path_132" data-name="Path 132" d="M175.683,291.42l-10.793,5.155v8.134l10.793-6.022Z" transform="translate(-145.767 -133.483)" fill="#e0e0e0"/>
      <path id="Path_133" data-name="Path 133" d="M151.94,290.572l10.7-5.182,8.538,3.93-10.793,5.155Z" transform="translate(-141.257 -131.383)" fill="#f5f5f5"/>
      <path id="Path_134" data-name="Path 134" d="M156.54,302.01v3.722l1.955.886v-3.559Z" transform="translate(-142.859 -137.171)" fill="#fafafa"/>
      <path id="Path_135" data-name="Path 135" d="M205.65,213.6v7.88l8.44,4.165v-8.134Z" transform="translate(-159.961 -106.384)" fill="#f5f5f5"/>
      <path id="Path_136" data-name="Path 136" d="M229.393,211.69,218.6,216.846v8.134l10.793-6.022Z" transform="translate(-164.47 -105.719)" fill="#e0e0e0"/>
      <path id="Path_137" data-name="Path 137" d="M205.65,210.835l10.7-5.175,8.538,3.93-10.793,5.155Z" transform="translate(-159.961 -103.619)" fill="#f5f5f5"/>
      <path id="Path_138" data-name="Path 138" d="M210.25,222.28V226l1.955.886v-3.565Z" transform="translate(-161.563 -109.406)" fill="#e0e0e0"/>
      <path id="Path_139" data-name="Path 139" d="M191.25,317.13v7.88l8.44,4.158v-8.128Z" transform="translate(-154.946 -142.436)" fill="#e0e0e0"/>
      <path id="Path_140" data-name="Path 140" d="M215,315.21l-10.787,5.162V328.5L215,322.484Z" transform="translate(-159.459 -141.767)" fill="#ebebeb"/>
      <path id="Path_141" data-name="Path 141" d="M191.25,314.365l10.7-5.175,8.538,3.924L199.7,318.276Z" transform="translate(-154.946 -139.671)" fill="#f5f5f5"/>
      <path id="Path_142" data-name="Path 142" d="M195.85,325.8v3.728l1.955.88v-3.559Z" transform="translate(-156.548 -145.455)" fill="#fafafa"/>
      <path id="Path_143" data-name="Path 143" d="M244.73,346.32v9.874L262.5,366.668V356.475Z" transform="translate(-173.569 -152.601)" fill="#f5f5f5"/>
      <path id="Path_144" data-name="Path 144" d="M285.561,350.72l-13.531,7.287V368.2l13.531-7.548Z" transform="translate(-183.076 -154.133)" fill="#e0e0e0"/>
      <path id="Path_145" data-name="Path 145" d="M244.73,342.842l13.413-6.492,17.911,9.366L262.523,353Z" transform="translate(-173.569 -149.129)" fill="#fafafa"/>
      <path id="Path_146" data-name="Path 146" d="M255.04,360.33V365l2.457,1.473v-4.615Z" transform="translate(-177.16 -157.479)" fill="#fafafa"/>
      <path id="Path_147" data-name="Path 147" d="M179.06,377.5v9.874l17.793,10.48v-10.2Z" transform="translate(-150.701 -163.459)" fill="#e0e0e0"/>
      <path id="Path_148" data-name="Path 148" d="M227.595,375.43l-21.235,11.5v10.2l21.293-11.8Z" transform="translate(-160.208 -162.738)" fill="#fafafa"/>
      <path id="Path_149" data-name="Path 149" d="M179.06,371.688l22.46-10.878,16.627,9.568-21.293,11.465Z" transform="translate(-150.701 -157.647)" fill="#f5f5f5"/>
      <path id="Path_150" data-name="Path 150" d="M189.37,391.51v4.673l2.451,1.473v-4.621Z" transform="translate(-154.291 -168.337)" fill="#fafafa"/>
      <path id="Path_151" data-name="Path 151" d="M282.4,320.85v39.439l11.106,5.742V326.1Z" transform="translate(-186.687 -143.731)" fill="#f5f5f5"/>
      <path id="Path_152" data-name="Path 152" d="M290.606,315.05l-8.206,3.78,11.106,5.247,7.469-4.21Z" transform="translate(-186.687 -141.712)" fill="#fafafa"/>
      <path id="Path_153" data-name="Path 153" d="M299.44,326.65v39.934l6.759-3.637.71-40.507Z" transform="translate(-192.621 -144.285)" fill="#e0e0e0"/>
      <path id="Path_154" data-name="Path 154" d="M210.39,271.84v39.439l11.106,5.742V277.087Z" transform="translate(-161.611 -126.665)" fill="#f5f5f5"/>
      <path id="Path_155" data-name="Path 155" d="M218.589,266.03l-8.2,3.787,11.106,5.247,7.469-4.21Z" transform="translate(-161.611 -124.641)" fill="#fafafa"/>
      <path id="Path_156" data-name="Path 156" d="M227.43,277.64v39.934l6.752-3.331.717-40.814Z" transform="translate(-167.545 -127.218)" fill="#e0e0e0"/>
      <path id="Path_157" data-name="Path 157" d="M218.12,386.91v9.874l17.8,10.48V397.071Z" transform="translate(-164.303 -166.735)" fill="#e0e0e0"/>
      <path id="Path_158" data-name="Path 158" d="M258.954,391.32l-13.524,7.287V408.8l13.524-7.548Z" transform="translate(-173.813 -168.271)" fill="#fafafa"/>
      <path id="Path_159" data-name="Path 159" d="M218.12,382.912l13.57-7.482,17.754,10.357-13.524,7.287Z" transform="translate(-164.303 -162.738)" fill="#f5f5f5"/>
      <path id="Path_160" data-name="Path 160" d="M228.43,400.92v4.673l2.457,1.473v-4.621Z" transform="translate(-167.893 -171.614)" fill="#fafafa"/>
      <path id="Path_161" data-name="Path 161" d="M261.526,186.2,229.12,171.6l45.129-22.968,14.808,22.082Z" transform="translate(-168.134 -83.759)" fill="#ebebeb"/>
      <path id="Path_162" data-name="Path 162" d="M309.794,213.349l.222-25.289-25.126,14.3Z" transform="translate(-187.554 -97.49)" fill="#1acebb"/>
      <path id="Path_163" data-name="Path 163" d="M291.756,264.675a1.923,1.923,0,1,1-1.923-1.955,1.955,1.955,0,0,1,1.923,1.955Z" transform="translate(-188.606 -123.489)" fill="#e0e0e0"/>
      <path id="Path_164" data-name="Path 164" d="M290.769,269.937a13.205,13.205,0,0,1,0-4.217A13.205,13.205,0,0,1,290.769,269.937Z" transform="translate(-189.543 -124.533)" fill="#e0e0e0"/>
      <path id="Path_165" data-name="Path 165" d="M211.251,257.445a1.955,1.955,0,1,1-1.955-1.955,1.923,1.923,0,0,1,1.955,1.955Z" transform="translate(-160.549 -120.971)" fill="#e0e0e0"/>
      <path id="Path_166" data-name="Path 166" d="M210.3,262.747a13.2,13.2,0,0,1,0-4.217A13.2,13.2,0,0,1,210.3,262.747Z" transform="translate(-161.521 -122.03)" fill="#e0e0e0"/>
      <path id="Path_167" data-name="Path 167" d="M171.865,298.643a1.923,1.923,0,1,1-1.923-1.923A1.923,1.923,0,0,1,171.865,298.643Z" transform="translate(-146.857 -135.329)" fill="#e0e0e0"/>
      <path id="Path_168" data-name="Path 168" d="M170.909,303.887a13.205,13.205,0,0,1,0-4.217A13.2,13.2,0,0,1,170.909,303.887Z" transform="translate(-147.804 -136.356)" fill="#e0e0e0"/>
      <path id="Path_169" data-name="Path 169" d="M174.815,266.863a1.923,1.923,0,1,1-.575-1.371A1.923,1.923,0,0,1,174.815,266.863Z" transform="translate(-147.884 -124.262)" fill="#e0e0e0"/>
      <path id="Path_170" data-name="Path 170" d="M173.829,272.107a13.206,13.206,0,0,1,0-4.217,13.2,13.2,0,0,1,0,4.217Z" transform="translate(-148.821 -125.289)" fill="#e0e0e0"/>
      <path id="Path_171" data-name="Path 171" d="M247.581,263.976a1.955,1.955,0,1,1-1.923-1.916,1.923,1.923,0,0,1,1.923,1.916Z" transform="translate(-173.201 -123.259)" fill="#e0e0e0"/>
      <path id="Path_172" data-name="Path 172" d="M246.629,269.187a13.206,13.206,0,0,1,0-4.217A13.206,13.206,0,0,1,246.629,269.187Z" transform="translate(-174.172 -124.272)" fill="#e0e0e0"/>
      <path id="Path_173" data-name="Path 173" d="M294.205,286.043a1.923,1.923,0,1,1-1.923-1.923,1.923,1.923,0,0,1,1.923,1.923Z" transform="translate(-189.459 -130.941)" fill="#e0e0e0"/>
      <path id="Path_174" data-name="Path 174" d="M293.219,291.287a13.2,13.2,0,0,1,0-4.217,13.205,13.205,0,0,1,0,4.217Z" transform="translate(-190.396 -131.968)" fill="#e0e0e0"/>
      <path id="Path_175" data-name="Path 175" d="M296.085,303.393a1.923,1.923,0,1,1-1.923-1.923A1.923,1.923,0,0,1,296.085,303.393Z" transform="translate(-190.114 -136.983)" fill="#e0e0e0"/>
      <path id="Path_176" data-name="Path 176" d="M295.1,308.637a13.205,13.205,0,0,1,0-4.217A13.205,13.205,0,0,1,295.1,308.637Z" transform="translate(-191.051 -138.01)" fill="#e0e0e0"/>
      <path id="Path_177" data-name="Path 177" d="M213.375,339.393a1.923,1.923,0,1,1-.575-1.371A1.923,1.923,0,0,1,213.375,339.393Z" transform="translate(-161.312 -149.519)" fill="#e0e0e0"/>
      <path id="Path_178" data-name="Path 178" d="M212.389,344.637a13.2,13.2,0,0,1,0-4.217A13.2,13.2,0,0,1,212.389,344.637Z" transform="translate(-162.249 -150.546)" fill="#e0e0e0"/>
      <circle id="Ellipse_10" data-name="Ellipse 10" cx="1.923" cy="1.923" r="1.923" transform="translate(111.381 221.472)" fill="#e0e0e0"/>
      <path id="Path_179" data-name="Path 179" d="M309.3,396.067a13.2,13.2,0,0,1,0-4.217A13.205,13.205,0,0,1,309.3,396.067Z" transform="translate(-195.996 -168.456)" fill="#e0e0e0"/>
      <path id="Path_180" data-name="Path 180" d="M253.911,423.083a1.955,1.955,0,1,1-1.923-1.923A1.923,1.923,0,0,1,253.911,423.083Z" transform="translate(-175.405 -178.662)" fill="#e0e0e0"/>
      <path id="Path_181" data-name="Path 181" d="M252.909,428.327a13.2,13.2,0,0,1,0-4.217A13.2,13.2,0,0,1,252.909,428.327Z" transform="translate(-176.359 -179.69)" fill="#e0e0e0"/>
      <path id="Path_182" data-name="Path 182" d="M231.205,414.173a1.923,1.923,0,1,1-1.923-1.923,1.923,1.923,0,0,1,1.923,1.923Z" transform="translate(-167.521 -175.56)" fill="#e0e0e0"/>
      <path id="Path_183" data-name="Path 183" d="M230.219,419.417a13.2,13.2,0,0,1,0-4.217,12.722,12.722,0,0,1,0,4.217Z" transform="translate(-168.457 -176.587)" fill="#e0e0e0"/>
      <path id="Path_184" data-name="Path 184" d="M283.261,407.685a1.955,1.955,0,1,1-1.955-1.955,1.923,1.923,0,0,1,1.955,1.955Z" transform="translate(-185.625 -173.289)" fill="#e0e0e0"/>
      <path id="Path_185" data-name="Path 185" d="M282.309,412.947a13.2,13.2,0,0,1,0-4.217A13.2,13.2,0,0,1,282.309,412.947Z" transform="translate(-186.597 -174.334)" fill="#e0e0e0"/>
      <circle id="Ellipse_11" data-name="Ellipse 11" cx="1.923" cy="1.923" r="1.923" transform="translate(64.845 195.446)" fill="#e0e0e0"/>
      <path id="Path_186" data-name="Path 186" d="M237.909,356.137a13.2,13.2,0,0,1,0-4.217A13.205,13.205,0,0,1,237.909,356.137Z" transform="translate(-171.135 -154.551)" fill="#e0e0e0"/>
      <path id="Path_187" data-name="Path 187" d="M246.325,322.1a1.923,1.923,0,1,1-1.923-1.923A1.923,1.923,0,0,1,246.325,322.1Z" transform="translate(-172.786 -143.498)" fill="#e0e0e0"/>
      <path id="Path_188" data-name="Path 188" d="M245.339,327.347a13.2,13.2,0,0,1,0-4.217,13.2,13.2,0,0,1,0,4.217Z" transform="translate(-173.723 -144.525)" fill="#e0e0e0"/>
      <path id="Path_189" data-name="Path 189" d="M174.815,325.343a1.923,1.923,0,1,1-.575-1.371A1.923,1.923,0,0,1,174.815,325.343Z" transform="translate(-147.884 -144.626)" fill="#e0e0e0"/>
      <path id="Path_190" data-name="Path 190" d="M173.829,330.587a13.2,13.2,0,0,1,0-4.217,13.2,13.2,0,0,1,0,4.217Z" transform="translate(-148.821 -145.654)" fill="#e0e0e0"/>
      <path id="Path_191" data-name="Path 191" d="M311.035,298.643a1.923,1.923,0,1,1-1.923-1.923,1.923,1.923,0,0,1,1.923,1.923Z" transform="translate(-195.32 -135.329)" fill="#e0e0e0"/>
      <path id="Path_192" data-name="Path 192" d="M310.049,303.887a13.2,13.2,0,0,1,0-4.217A13.205,13.205,0,0,1,310.049,303.887Z" transform="translate(-196.257 -136.356)" fill="#e0e0e0"/>
      <path id="Path_193" data-name="Path 193" d="M303.125,254.513a1.923,1.923,0,1,1-1.923-1.923A1.923,1.923,0,0,1,303.125,254.513Z" transform="translate(-192.565 -119.961)" fill="#e0e0e0"/>
      <path id="Path_194" data-name="Path 194" d="M302.139,259.747a13.2,13.2,0,0,1,0-4.217A13.205,13.205,0,0,1,302.139,259.747Z" transform="translate(-193.502 -120.985)" fill="#e0e0e0"/>
      <circle id="Ellipse_12" data-name="Ellipse 12" cx="1.923" cy="1.923" r="1.923" transform="translate(67.784 107.21)" fill="#e0e0e0"/>
      <path id="Path_195" data-name="Path 195" d="M242.406,220.747a12.723,12.723,0,0,1,0-4.217A13.2,13.2,0,0,1,242.406,220.747Z" transform="translate(-172.699 -107.404)" fill="#e0e0e0"/>
      <path id="Path_196" data-name="Path 196" d="M187,271.163a1.923,1.923,0,1,1-.575-1.371A1.923,1.923,0,0,1,187,271.163Z" transform="translate(-152.125 -125.759)" fill="#e0e0e0"/>
      <path id="Path_197" data-name="Path 197" d="M186.009,276.407a13.205,13.205,0,0,1,0-4.217A12.723,12.723,0,0,1,186.009,276.407Z" transform="translate(-153.062 -126.786)" fill="#e0e0e0"/>
      <path id="Path_198" data-name="Path 198" d="M221.621,194.445a1.955,1.955,0,1,1-1.955-1.955,1.923,1.923,0,0,1,1.955,1.955Z" transform="translate(-164.16 -99.032)" fill="#e0e0e0"/>
      <path id="Path_199" data-name="Path 199" d="M220.669,199.747a13.205,13.205,0,0,1,0-4.217,13.2,13.2,0,0,1,0,4.217Z" transform="translate(-165.132 -100.091)" fill="#e0e0e0"/>
      <path id="Path_200" data-name="Path 200" d="M281.806,187.955a1.923,1.923,0,1,1-.551-1.38,1.923,1.923,0,0,1,.551,1.38Z" transform="translate(-185.141 -96.772)" fill="#e0e0e0"/>
      <path id="Path_201" data-name="Path 201" d="M280.819,193.237a13.2,13.2,0,0,1,0-4.217A13.205,13.205,0,0,1,280.819,193.237Z" transform="translate(-186.078 -97.824)" fill="#e0e0e0"/>
      <path id="Path_202" data-name="Path 202" d="M298.4,185.255a1.955,1.955,0,1,1-1.923-1.955,1.923,1.923,0,0,1,1.923,1.955Z" transform="translate(-190.897 -95.832)" fill="#e0e0e0"/>
      <path id="Path_203" data-name="Path 203" d="M297.449,190.517a13.2,13.2,0,0,1,0-4.217A13.2,13.2,0,0,1,297.449,190.517Z" transform="translate(-191.869 -96.877)" fill="#e0e0e0"/>
      <path id="Path_204" data-name="Path 204" d="M291.755,163.513a1.923,1.923,0,1,1-1.923-1.923,1.955,1.955,0,0,1,1.923,1.923Z" transform="translate(-188.606 -88.272)" fill="#e0e0e0"/>
      <path id="Path_205" data-name="Path 205" d="M290.769,168.747a13.205,13.205,0,0,1,0-4.217,13.2,13.2,0,0,1,0,4.217Z" transform="translate(-189.543 -89.296)" fill="#e0e0e0"/>
      <path id="Path_206" data-name="Path 206" d="M199.125,213.643a1.923,1.923,0,1,1-.575-1.371,1.923,1.923,0,0,1,.575,1.371Z" transform="translate(-156.35 -105.729)" fill="#e0e0e0"/>
      <path id="Path_207" data-name="Path 207" d="M198.139,218.887a13.2,13.2,0,0,1,0-4.217,13.205,13.205,0,0,1,0,4.217Z" transform="translate(-157.286 -106.756)" fill="#e0e0e0"/>
      <path id="Path_208" data-name="Path 208" d="M267.651,185.733a1.955,1.955,0,1,1-1.923-1.923,1.923,1.923,0,0,1,1.923,1.923Z" transform="translate(-180.189 -96.01)" fill="#e0e0e0"/>
      <path id="Path_209" data-name="Path 209" d="M266.7,190.977a13.2,13.2,0,0,1,0-4.217,13.206,13.206,0,0,1,0,4.217Z" transform="translate(-181.161 -97.037)" fill="#e0e0e0"/>
      <path id="Path_210" data-name="Path 210" d="M184.821,119.293a1.955,1.955,0,1,1-1.923-1.923,1.923,1.923,0,0,1,1.923,1.923Z" transform="translate(-151.346 -72.873)" fill="#e0e0e0"/>
      <path id="Path_211" data-name="Path 211" d="M183.9,124.53a13.162,13.162,0,0,1,0-4.21,13.16,13.16,0,0,1,0,4.21Z" transform="translate(-152.32 -73.901)" fill="#e0e0e0"/>
      <path id="Path_212" data-name="Path 212" d="M218.705,135.443a1.923,1.923,0,1,1-1.923-1.923,1.923,1.923,0,0,1,1.923,1.923Z" transform="translate(-163.168 -78.497)" fill="#e0e0e0"/>
      <path id="Path_213" data-name="Path 213" d="M217.709,140.687a13.2,13.2,0,0,1,0-4.217,13.2,13.2,0,0,1,0,4.217Z" transform="translate(-164.094 -79.525)" fill="#e0e0e0"/>
      <path id="Path_214" data-name="Path 214" d="M164.911,186.445a1.955,1.955,0,1,1-1.955-1.955,1.923,1.923,0,0,1,1.955,1.955Z" transform="translate(-144.412 -96.247)" fill="#e0e0e0"/>
      <path id="Path_215" data-name="Path 215" d="M163.909,191.747a13.205,13.205,0,0,1,0-4.217,13.2,13.2,0,0,1,0,4.217Z" transform="translate(-145.366 -97.305)" fill="#e0e0e0"/>
      <path id="Path_216" data-name="Path 216" d="M167.821,138.393a1.955,1.955,0,1,1-1.923-1.923,1.923,1.923,0,0,1,1.923,1.923Z" transform="translate(-145.426 -79.524)" fill="#e0e0e0"/>
      <path id="Path_217" data-name="Path 217" d="M166.9,143.637a13.2,13.2,0,0,1,0-4.217,13.2,13.2,0,0,1,0,4.217Z" transform="translate(-146.399 -80.552)" fill="#e0e0e0"/>
      <path id="Path_218" data-name="Path 218" d="M296.86,272.481l15.851-8.4-.065,15.154Z" transform="translate(-191.723 -123.962)" fill="#ebebeb"/>
      <path id="Path_219" data-name="Path 219" d="M177.3,350.2,142.57,368.126V334.684l3.845-1.714Z" transform="translate(-137.994 -147.952)" fill="#ebebeb"/>
      <path id="Path_220" data-name="Path 220" d="M273.062,385.726a2.216,2.216,0,1,1-2.216-2.216,2.216,2.216,0,0,1,2.216,2.216Z" transform="translate(-181.892 -165.551)" fill="#1acebb"/>
      <path id="Path_221" data-name="Path 221" d="M306.54,144.22l11.061,3.363v17.428Z" transform="translate(-195.094 -82.223)" fill="#ebebeb"/>
      <path id="Path_222" data-name="Path 222" d="M262.055,91.774l-.065-19.019a13.726,13.726,0,0,0-13.524-11.875l-17.448-.065a4.334,4.334,0,0,0-4.256,4.412v3.161a4.334,4.334,0,0,1-4.256,4.4l-34.016-.156a4.341,4.341,0,0,1-4.217-4.452V65.019a4.334,4.334,0,0,0-4.217-4.452h-6.14l-15.284-.1a13.687,13.687,0,0,0-9.288,3.6c-1.532,2.953-3.207,7.169-2.438,10.357L261.97,111.888Z" transform="translate(-139.437 -53.059)" fill="#1acebb"/>
      <path id="Path_223" data-name="Path 223" d="M262.055,91.774l-.065-19.019a13.726,13.726,0,0,0-13.524-11.875l-17.448-.065a4.334,4.334,0,0,0-4.256,4.412v3.161a4.334,4.334,0,0,1-4.256,4.4l-34.016-.156a4.341,4.341,0,0,1-4.217-4.452V65.019a4.334,4.334,0,0,0-4.217-4.452h-6.14l-15.284-.1a13.687,13.687,0,0,0-9.288,3.6c-1.532,2.953-3.207,7.169-2.438,10.357L261.97,111.888Z" transform="translate(-139.437 -53.059)" fill="#fff" opacity="0.7"/>
      <path id="Path_224" data-name="Path 224" d="M246.87,60.811h.469a10.565,10.565,0,0,1,1.388.117,12.866,12.866,0,0,1,5.142,1.8,13.3,13.3,0,0,1,3.122,2.581,13.785,13.785,0,0,1,2.607,4.113,14.248,14.248,0,0,1,1,5.573v6.472c-.065,18.3-.156,44.764-.274,77.469s-.28,71.649-.45,114.894q0,8.1-.065,16.412v4.165a14.659,14.659,0,0,1-.547,4.178,13.686,13.686,0,0,1-1.766,3.858,14.65,14.65,0,0,1-2.868,3.155,13.863,13.863,0,0,1-7.926,3.044c-.723.046-1.44.033-2.157.033h-6.472l-17.487-.078-35.932-.176-18.354-.085-9.268-.072a14.508,14.508,0,0,1-8.916-2.5,13.994,13.994,0,0,1-5.423-7.528,14.926,14.926,0,0,1-.554-4.641v-4.628q.039-9.236.078-18.36.078-18.25.15-35.893c.1-23.535.2-46.237.3-67.862s.189-42.17.274-61.4q.065-14.424.13-27.824V74.29c0-.554.052-1.115.085-1.669a8.131,8.131,0,0,1,.287-1.629,13.858,13.858,0,0,1,14.111-10.709l11.966.059H178.1a4.373,4.373,0,0,1,2.692.763,4.562,4.562,0,0,1,1.721,2.249,7.541,7.541,0,0,1,.267,2.711v1.3a9.693,9.693,0,0,0,0,1.3,4.354,4.354,0,0,0,1.023,2.307,4.008,4.008,0,0,0,2.1,1.3,4.627,4.627,0,0,0,1.238.13h6.224l18.1.1,7.984.046h1.871a4.022,4.022,0,0,0,1.688-.587,4.36,4.36,0,0,0,1.955-2.763,7.959,7.959,0,0,0,.111-1.669V65.9a8.689,8.689,0,0,1,.078-1.6,4.472,4.472,0,0,1,.521-1.466,4.3,4.3,0,0,1,2.2-1.955,6.9,6.9,0,0,1,2.724-.28l8.9.059,5.475.039H230.6a6.622,6.622,0,0,0-2.685.28,4.21,4.21,0,0,0-2.138,1.877,4.523,4.523,0,0,0-.5,1.434,8.954,8.954,0,0,0-.072,1.577q0,.811,0,1.642a7.469,7.469,0,0,1-.117,1.695,4.465,4.465,0,0,1-1.994,2.855,4.152,4.152,0,0,1-1.74.613c-.652.052-1.251,0-1.89,0h-7.984l-18.1-.072h-6.224a4.855,4.855,0,0,1-1.3-.13,4.282,4.282,0,0,1-2.17-1.29,4.562,4.562,0,0,1-1.069-2.418,10.23,10.23,0,0,1-.039-1.336v-1.3a7.169,7.169,0,0,0-.254-2.607,4.334,4.334,0,0,0-1.59-2.1,4.132,4.132,0,0,0-2.568-.717h-8.577L157.6,60.648a13.687,13.687,0,0,0-11,4.706,13.83,13.83,0,0,0-2.848,5.7c-.137.521-.182,1.069-.28,1.6a9.728,9.728,0,0,0-.078,1.636v3.331q-.059,13.381-.111,27.824c-.072,19.234-.156,39.758-.241,61.4s-.182,44.32-.28,67.862q-.072,17.656-.176,35.906,0,9.125-.072,18.36v4.634a14.619,14.619,0,0,0,.541,4.562,13.687,13.687,0,0,0,5.266,7.339,14.169,14.169,0,0,0,8.708,2.412l9.268.039,18.36.085,35.88.169,17.487.085H244.5c.717,0,1.434,0,2.138-.033a13.544,13.544,0,0,0,7.743-2.972,14.337,14.337,0,0,0,2.8-3.083,13.481,13.481,0,0,0,1.727-3.761,14.235,14.235,0,0,0,.528-4.093V290.2q.039-8.31.072-16.418c.2-43.238.378-82.182.521-114.887s.293-59.174.385-77.469q0-3.428.033-6.472a14.046,14.046,0,0,0-.978-5.534,13.5,13.5,0,0,0-2.568-4.093,13.341,13.341,0,0,0-3.089-2.548,12.99,12.99,0,0,0-5.11-1.825,10.05,10.05,0,0,0-1.388-.13A2.975,2.975,0,0,1,246.87,60.811Z" transform="translate(-137.842 -52.99)" fill="#263238"/>
    </g>
    <g id="freepik--Character--inject-13" transform="translate(175.678 112.366)">
      <path id="Path_225" data-name="Path 225" d="M365.37,259.79c9.653.241,19.41.5,28.743,2.972s18.347,7.4,23.881,15.317c6.1,8.708,7.313,19.84,7.919,30.451a339.784,339.784,0,0,1-.821,52.845c-.873,8.89-4.028,17.155-12.3,20.537-9.946,4.074-23.314,0-23.314,0" transform="translate(-292.548 -185.735)" fill="#263238"/>
      <path id="Path_226" data-name="Path 226" d="M405.09,383.666h1.44l4.126-.033a46.734,46.734,0,0,0,6.518-.339c.652-.1,1.3-.176,1.955-.345l1-.222c.339-.091.652-.2,1.023-.3.7-.182,1.375-.476,2.086-.737a19.936,19.936,0,0,0,2.086-1.03,15.083,15.083,0,0,0,3.911-3.1,11.771,11.771,0,0,0,2.548-4.693,55.961,55.961,0,0,0,1.466-11.882c.13-4.23.085-8.675.124-13.29s.039-9.379.065-14.267.072-9.666-.085-14.274a96.98,96.98,0,0,0-1.251-13.2c-1.408-8.336-4.321-15.564-8.089-20.739a46.27,46.27,0,0,0-5.762-6.4c-1.858-1.74-3.526-3.161-4.895-4.315l-3.168-2.64-.815-.7a3.145,3.145,0,0,1-.274-.248s.1.072.293.222l.841.652,3.207,2.607c1.382,1.134,3.07,2.542,4.94,4.276a45.736,45.736,0,0,1,5.827,6.4c3.813,5.214,6.772,12.455,8.206,20.857a96.583,96.583,0,0,1,1.264,13.25c.169,4.615.117,9.392.1,14.28s-.046,9.659-.072,14.274,0,9.053-.143,13.3a56.325,56.325,0,0,1-1.506,11.947,12.051,12.051,0,0,1-2.607,4.79A15.387,15.387,0,0,1,425.5,380.9a21.028,21.028,0,0,1-2.112,1.036c-.723.261-1.414.547-2.118.73l-1.03.293-1.017.222c-.652.163-1.3.228-1.955.332a45.219,45.219,0,0,1-6.518.28h-5.2Z" transform="translate(-306.379 -189.607)" fill="#455a64"/>
      <path id="Path_227" data-name="Path 227" d="M448.71,370.3a9.626,9.626,0,0,1,3.383-.606,9.821,9.821,0,0,1,3.428.287c0,.1-1.538-.039-3.415.052S448.73,370.4,448.71,370.3Z" transform="translate(-321.569 -223.993)" fill="#455a64"/>
      <path id="Path_228" data-name="Path 228" d="M384.72,260.56h.984c.652,0,1.6,0,2.829.111a43.375,43.375,0,0,1,10.168,2.17l1.584.587.821.306.808.365,1.675.763c.574.254,1.115.58,1.695.88a46.306,46.306,0,0,1,6.909,4.517,47.581,47.581,0,0,1,6.648,6.25,34.994,34.994,0,0,1,5.377,8.18,56.714,56.714,0,0,1,4.81,18.25,134.911,134.911,0,0,1,.652,15.421c0,4.393,0,7.939.085,10.4.039,1.212.065,2.157.085,2.829v.73a1.492,1.492,0,0,1,0,.254,1.074,1.074,0,0,1,0-.248,4.137,4.137,0,0,0-.052-.737c-.046-.652-.091-1.6-.143-2.822-.1-2.457-.15-6.009-.2-10.428a151.49,151.49,0,0,0-.75-15.388,56.858,56.858,0,0,0-4.8-18.119,34.433,34.433,0,0,0-5.325-8.108,46.658,46.658,0,0,0-6.589-6.224,45.877,45.877,0,0,0-6.85-4.517c-.567-.3-1.108-.652-1.675-.886l-1.662-.763-.808-.372-.808-.306-1.571-.6a45.539,45.539,0,0,0-10.1-2.262c-1.219-.1-2.177-.124-2.816-.169l-.737-.046A1.077,1.077,0,0,1,384.72,260.56Z" transform="translate(-299.286 -186.003)" fill="#e0e0e0"/>
      <path id="Path_229" data-name="Path 229" d="M375.46,257.744s2.366-6.25,10.793-5.064c0,0,3.754-.209,4.439,1.877,0,0-7.854-1.955-11.2,3.48Z" transform="translate(-296.061 -183.207)" fill="#263238"/>
      <path id="Path_230" data-name="Path 230" d="M402.768,265.163h-4.934s-.958-13.035-12.925-12.547C384.91,252.643,399.783,247.637,402.768,265.163Z" transform="translate(-299.352 -183.013)" fill="#455a64"/>
      <path id="Path_231" data-name="Path 231" d="M448.695,382.87l7.078.978-.71,2.516-6.6-.508Z" transform="translate(-321.482 -228.595)" fill="#455a64"/>
      <path id="Path_232" data-name="Path 232" d="M449.48,385.611a5.767,5.767,0,0,1,.828-1.271l.1-.13.111.13.991,1.206-.228-.033.7-.521.737-.534.13-.1.1.137.906,1.3-.182-.033a6.039,6.039,0,0,1,1.3-.756,5.486,5.486,0,0,1-1.121.971l-.124.046-.078-.1-.965-1.238.228.033-.723.541-.71.515-.13.1-.1-.13-.939-1.238h.209a5.742,5.742,0,0,1-1.043,1.108Z" transform="translate(-321.837 -229.062)" fill="#1acebb"/>
      <path id="Path_233" data-name="Path 233" d="M290.4,386.849s-1.369-4.458-1.095-6.348,2.809-3.6,2.809-3.6l-2.75-71.467s-.352-31.285,16.19-40.977l9.874-2.49,24.357-1.44c.789.261,29.414,11.028,33.351,15.232l-12.345,63.026s1.5,18.621,2.992,32c.306,2.737,2.359,16.255,2.359,16.255Z" transform="translate(-266.046 -185.992)" fill="#1acebb"/>
      <g id="Group_95" data-name="Group 95" transform="translate(40.599 155.03)" opacity="0.3">
        <path id="Path_234" data-name="Path 234" d="M372.608,409.592c-.235,1.734-.893,3.852-2.561,4.393a10.9,10.9,0,0,1-5.214.072c-6.1-1.089-11.732-3.956-17.239-6.785-10.3-5.3-20.707-10.65-29.61-18.08-1.251-1.043-2.607-2.666-1.818-4.106.867-1.629,3.311-1.082,4.986-.306,17.48,8.056,33.97,16.75,51.451,24.813" transform="translate(-315.931 -384.028)"/>
      </g>
      <path id="Path_235" data-name="Path 235" d="M297.389,269.55s-10.9,3.637-14.43,13.739c-3.911,11.158-6.479,32.823-6.479,32.823l10.767,1.356Z" transform="translate(-261.594 -189.133)" fill="#1acebb"/>
      <path id="Path_236" data-name="Path 236" d="M408.373,282.95a60.952,60.952,0,0,1,8.695,17.037c2.829,9.346,4.471,36.427,4.471,36.427l-29.33-.4-1.558-23.835S387.693,272.411,408.373,282.95Z" transform="translate(-301.301 -193.181)" fill="#1acebb"/>
      <path id="Path_237" data-name="Path 237" d="M282.38,304.5a3.474,3.474,0,0,1,.815-.763,3.982,3.982,0,0,1,3.083-.593c1.421.209,2.8,1.3,4.621,2.021a5.214,5.214,0,0,0,3.024.372,8.1,8.1,0,0,0,2.979-1.747,8.213,8.213,0,0,1,1.629-1.023,2.607,2.607,0,0,1,2.027-.085,3.409,3.409,0,0,1,1.577,1.408c.4.587.73,1.225,1.154,1.8a3.161,3.161,0,0,0,1.655,1.3,3.865,3.865,0,0,0,2.177,0,8.362,8.362,0,0,0,2.125-.919c.652-.4,1.3-.88,2.027-1.3a9.629,9.629,0,0,1,2.268-1.1,4.315,4.315,0,0,1,2.607,0,6.817,6.817,0,0,1,2.255,1.382c.652.567,1.3,1.193,1.988,1.734a5.038,5.038,0,0,0,2.32,1.134,4.765,4.765,0,0,0,2.607-.267,41.959,41.959,0,0,0,4.862-2.7,9.015,9.015,0,0,1,2.653-1.062,5.285,5.285,0,0,1,2.829.222c1.773.691,3.089,2.04,4.667,2.79a5.6,5.6,0,0,0,1.212.43,4.861,4.861,0,0,0,1.264.085,7.085,7.085,0,0,0,2.431-.7,45.877,45.877,0,0,1,4.562-2.2,4.953,4.953,0,0,1,2.464-.215,4.614,4.614,0,0,1,2.144,1.095c1.193,1,2.138,2.268,3.5,2.692a4.061,4.061,0,0,0,2.053.059,15.149,15.149,0,0,0,1.955-.587,7.072,7.072,0,0,1,3.852-.606,4.028,4.028,0,0,1,1.655.815c.476.365.893.769,1.3,1.134a7.032,7.032,0,0,0,1.3.945,4.178,4.178,0,0,0,1.408.45,5.866,5.866,0,0,0,2.666-.267,7.991,7.991,0,0,0,2.027-1.036,17.743,17.743,0,0,0,2.4-2.079l.587-.587a1.107,1.107,0,0,1,.209-.189s-.059.078-.182.215l-.56.613A17.083,17.083,0,0,1,376.2,309.3a8.057,8.057,0,0,1-2.047,1.075,6,6,0,0,1-2.744.306,4.335,4.335,0,0,1-1.479-.463,7.5,7.5,0,0,1-1.3-.958,6.721,6.721,0,0,0-2.874-1.877,7.133,7.133,0,0,0-3.709.619,15.779,15.779,0,0,1-1.994.606,4.38,4.38,0,0,1-2.19-.059,5.358,5.358,0,0,1-1.955-1.18c-.574-.508-1.095-1.062-1.688-1.551a4.223,4.223,0,0,0-2.007-1.023,4.667,4.667,0,0,0-2.307.215,49.979,49.979,0,0,0-4.5,2.2,7.254,7.254,0,0,1-2.535.73,5.253,5.253,0,0,1-1.356-.085,6.083,6.083,0,0,1-1.3-.456c-1.642-.789-2.959-2.125-4.647-2.77a4.907,4.907,0,0,0-2.64-.209,8.968,8.968,0,0,0-2.555,1.023,39.692,39.692,0,0,1-4.908,2.731,5.214,5.214,0,0,1-2.777.28,5.4,5.4,0,0,1-2.464-1.206c-1.414-1.1-2.548-2.535-4.145-3.063a3.982,3.982,0,0,0-2.405,0,9.322,9.322,0,0,0-2.19,1.062c-.7.424-1.343.906-2.047,1.3a8.691,8.691,0,0,1-2.2.939,4.224,4.224,0,0,1-2.346,0,3.513,3.513,0,0,1-1.792-1.388c-.437-.6-.763-1.245-1.147-1.818a3.259,3.259,0,0,0-1.447-1.3,2.34,2.34,0,0,0-1.838.078,7.651,7.651,0,0,0-1.584.984A8.653,8.653,0,0,1,294,305.8a5.416,5.416,0,0,1-3.142-.411c-1.845-.73-3.2-1.844-4.562-2.066a3.969,3.969,0,0,0-3.024.521,7.627,7.627,0,0,0-.893.652Z" transform="translate(-263.648 -200.613)" fill="#fafafa"/>
      <path id="Path_238" data-name="Path 238" d="M277.08,331.914a1.585,1.585,0,0,1,.287,0l.847.085a7.293,7.293,0,0,0,3.207-.085c.691-.15,1.466-.287,2.314-.437s1.753-.352,2.757-.469a7.651,7.651,0,0,1,3.259.235c1.108.326,2.183.893,3.37,1.3a6.517,6.517,0,0,0,3.832.111c1.3-.319,2.607-.926,4.047-1.414a7.619,7.619,0,0,1,4.562-.45c1.577.443,2.848,1.61,4.426,1.994a3.552,3.552,0,0,0,1.2.085,5.6,5.6,0,0,0,1.206-.287c.8-.274,1.564-.652,2.405-.971a3.839,3.839,0,0,1,2.7-.091,9.646,9.646,0,0,1,2.281,1.512,5.468,5.468,0,0,0,1.134.684,3.076,3.076,0,0,0,1.3.241,6.922,6.922,0,0,0,2.607-.776,14.894,14.894,0,0,1,2.659-1.062,4.334,4.334,0,0,1,1.479-.1,4.139,4.139,0,0,1,1.421.463,24.764,24.764,0,0,1,2.385,1.636,5.8,5.8,0,0,0,1.212.652,3.119,3.119,0,0,0,.652.182l.332.059h.339a7.411,7.411,0,0,0,2.659-.554c.86-.313,1.708-.684,2.607-.945a5.168,5.168,0,0,1,2.744-.2,5.071,5.071,0,0,1,2.314,1.395,17.868,17.868,0,0,0,1.9,1.721,3.565,3.565,0,0,0,2.294.652,6.25,6.25,0,0,0,2.294-.7c.723-.352,1.408-.763,2.105-1.147a7.783,7.783,0,0,1,4.432-1.3,8.531,8.531,0,0,1,3.911,1.831,22.444,22.444,0,0,0,3.259,2.2,9.555,9.555,0,0,0,3.415.925,12.149,12.149,0,0,0,3.168-.241,11.328,11.328,0,0,0,4.562-2.223,10.427,10.427,0,0,0,2.125-2.425c.182-.319.306-.58.4-.743a2.3,2.3,0,0,1,.143-.254,1.584,1.584,0,0,1-.111.267c-.085.169-.2.437-.372.763a9.829,9.829,0,0,1-2.1,2.49,11.367,11.367,0,0,1-4.595,2.307,11.922,11.922,0,0,1-3.22.274,9.647,9.647,0,0,1-3.507-.926,21.954,21.954,0,0,1-3.318-2.2,8.324,8.324,0,0,0-3.787-1.766,7.367,7.367,0,0,0-4.263,1.264c-.684.385-1.375.8-2.118,1.16a6.55,6.55,0,0,1-2.405.736,3.911,3.911,0,0,1-2.49-.7,17.164,17.164,0,0,1-1.955-1.747,4.739,4.739,0,0,0-2.17-1.3,4.855,4.855,0,0,0-2.574.2c-.86.254-1.7.652-2.574.939a7.633,7.633,0,0,1-2.777.58h-.371l-.358-.065a2.953,2.953,0,0,1-.71-.2,6.217,6.217,0,0,1-1.3-.7,26.032,26.032,0,0,0-2.353-1.616,3.735,3.735,0,0,0-1.3-.424,4.185,4.185,0,0,0-1.362.091,15.518,15.518,0,0,0-2.607,1.043,7.333,7.333,0,0,1-2.724.808,3.624,3.624,0,0,1-1.421-.267,5.867,5.867,0,0,1-1.2-.73,10.043,10.043,0,0,0-2.2-1.473,3.545,3.545,0,0,0-2.483.091c-.808.28-1.584.684-2.405.965a5.7,5.7,0,0,1-1.3.3,3.982,3.982,0,0,1-1.3-.091c-1.688-.43-2.946-1.6-4.439-2.014a7.359,7.359,0,0,0-4.419.424,42.686,42.686,0,0,1-4.08,1.408,6.726,6.726,0,0,1-3.969-.143c-1.212-.411-2.275-.984-3.357-1.3a7.436,7.436,0,0,0-3.135-.248c-.991.1-1.91.3-2.757.443s-1.623.261-2.314.4c-.345.065-.652.143-.991.189a3.676,3.676,0,0,1-.886,0c-.541-.059-1-.124-1.369-.176l-.834-.117A1.487,1.487,0,0,1,277.08,331.914Z" transform="translate(-261.802 -210.403)" fill="#fafafa"/>
      <path id="Path_239" data-name="Path 239" d="M293.73,356.18h.2l.567.059c.5.052,1.225.15,2.164.293,1.884.254,4.562.815,7.958,1.095a27.764,27.764,0,0,0,5.52-.1,13.122,13.122,0,0,1,3.122,0,5.573,5.573,0,0,1,1.584.463,7.937,7.937,0,0,1,1.421.926,9.925,9.925,0,0,0,2.816,1.845,2.946,2.946,0,0,0,1.662,0,11.491,11.491,0,0,0,1.656-.652,6.451,6.451,0,0,1,1.792-.6,2.8,2.8,0,0,1,1.9.411c1.128.684,1.864,1.825,3.011,2.307a5.5,5.5,0,0,0,3.637-.156,14.2,14.2,0,0,1,3.663-.854,4.112,4.112,0,0,1,1.831.385,6.57,6.57,0,0,1,1.506,1.017,12.9,12.9,0,0,0,2.685,2.073,4.087,4.087,0,0,0,3.089,0c1-.313,1.923-.8,2.926-1.03a4.289,4.289,0,0,1,2.913.222,2.353,2.353,0,0,1,1,1,9.019,9.019,0,0,1,.456,1.238,2.77,2.77,0,0,0,.56,1.043,2.287,2.287,0,0,0,.932.606,3.435,3.435,0,0,0,2.066,0,3.7,3.7,0,0,0,1.545-.952,6.448,6.448,0,0,0,.945-1.238,14.029,14.029,0,0,0,.912-1.955c.091-.215.156-.391.209-.528a.756.756,0,0,1,.085-.176.867.867,0,0,1-.052.189l-.176.541a12.186,12.186,0,0,1-.867,2.014,6.106,6.106,0,0,1-.939,1.3,3.911,3.911,0,0,1-1.6,1.023,3.623,3.623,0,0,1-2.19.033,2.471,2.471,0,0,1-1.036-.652,3,3,0,0,1-.652-1.121,9.445,9.445,0,0,0-.45-1.2,2.144,2.144,0,0,0-.893-.893,4.015,4.015,0,0,0-2.731-.17c-.952.215-1.877.7-2.9,1.036a6.029,6.029,0,0,1-1.623.319,3.807,3.807,0,0,1-1.688-.326,13.167,13.167,0,0,1-2.763-2.112,6.856,6.856,0,0,0-1.434-.971,3.911,3.911,0,0,0-1.688-.345,14.117,14.117,0,0,0-3.572.841,9.954,9.954,0,0,1-1.89.417,3.911,3.911,0,0,1-1.955-.267c-1.271-.554-2.014-1.714-3.057-2.333a2.457,2.457,0,0,0-1.688-.365,6.105,6.105,0,0,0-1.695.567,11.505,11.505,0,0,1-1.7.7,3.259,3.259,0,0,1-1.844,0,9.528,9.528,0,0,1-2.92-1.91,7.373,7.373,0,0,0-1.356-.893,5.307,5.307,0,0,0-1.5-.45,12.9,12.9,0,0,0-3.05,0,28.059,28.059,0,0,1-5.566.059c-3.4-.313-6.081-.913-7.958-1.206l-2.157-.358-.561-.085Z" transform="translate(-267.601 -219.301)" fill="#fafafa"/>
      <path id="Path_240" data-name="Path 240" d="M292.33,421.357l.2-.078.567-.2c.5-.176,1.245-.443,2.2-.756a16.875,16.875,0,0,1,3.6-.841,5.331,5.331,0,0,1,2.294.378,10.494,10.494,0,0,0,2.444.7,5.286,5.286,0,0,0,2.672-.6,15.2,15.2,0,0,1,2.874-1.154,7.053,7.053,0,0,1,3.324.2c1.1.293,2.19.73,3.324,1.062a7.235,7.235,0,0,0,3.539.3,22.347,22.347,0,0,0,3.539-1.375,5.923,5.923,0,0,1,1.955-.463,3.546,3.546,0,0,1,1.994.528c1.193.7,2.047,1.864,3.3,2.327a3.259,3.259,0,0,0,1.923.046,11.785,11.785,0,0,0,1.864-.71,13.7,13.7,0,0,1,1.877-.743,3.539,3.539,0,0,1,2.034-.046,4,4,0,0,1,1.656,1.1c.456.463.86.945,1.3,1.336a3.624,3.624,0,0,0,3.311.7c1.154-.228,2.242-.652,3.344-.971a6.784,6.784,0,0,1,1.688-.254,3.122,3.122,0,0,1,1.623.4,3.259,3.259,0,0,1,1.18,1.095c.3.43.534.88.776,1.3a3.624,3.624,0,0,0,1.9,1.89,3.207,3.207,0,0,0,2.412-.248,5.625,5.625,0,0,0,1.779-1.356,16.756,16.756,0,0,0,1.884-3.128,13.035,13.035,0,0,1,1.225-1.988,4.481,4.481,0,0,1,.554-.593s-.182.209-.5.652a14.012,14.012,0,0,0-1.167,2,16.428,16.428,0,0,1-1.858,3.194,5.717,5.717,0,0,1-1.832,1.427,3.428,3.428,0,0,1-2.607.28,3.911,3.911,0,0,1-2.047-1.988,5.215,5.215,0,0,0-1.864-2.288,4.381,4.381,0,0,0-3.1-.1c-1.062.28-2.164.743-3.357.984a4.8,4.8,0,0,1-1.858.065,3.91,3.91,0,0,1-.925-.28,3.977,3.977,0,0,1-.808-.541c-.489-.417-.9-.906-1.343-1.349a3.6,3.6,0,0,0-1.525-1.017,3.26,3.26,0,0,0-1.844.046,13.917,13.917,0,0,0-1.832.73,10.953,10.953,0,0,1-1.923.73,3.617,3.617,0,0,1-2.118-.052c-1.382-.528-2.229-1.708-3.35-2.359a3.207,3.207,0,0,0-1.812-.476,5.564,5.564,0,0,0-1.851.437,22.2,22.2,0,0,1-3.591,1.382,7.541,7.541,0,0,1-3.689-.319c-1.16-.345-2.236-.782-3.318-1.075a6.843,6.843,0,0,0-3.187-.209,15.309,15.309,0,0,0-2.829,1.121,5.58,5.58,0,0,1-2.8.6,10.608,10.608,0,0,1-2.49-.73,5.136,5.136,0,0,0-2.21-.4,17.415,17.415,0,0,0-3.572.776l-2.216.7-.587.163A.653.653,0,0,1,292.33,421.357Z" transform="translate(-267.113 -241.012)" fill="#fafafa"/>
      <path id="Path_241" data-name="Path 241" d="M328.887,397.375a2.119,2.119,0,0,1-.371.241,8.556,8.556,0,0,1-1.147.521,9.424,9.424,0,0,1-4.595.476,9.693,9.693,0,0,1-1.512-.352c-.515-.163-1.03-.4-1.551-.619a3.63,3.63,0,0,0-1.656-.339,3.507,3.507,0,0,0-1.642.7c-.515.365-1.017.8-1.61,1.167a3.911,3.911,0,0,1-.978.43,2.527,2.527,0,0,1-.541.078,1.954,1.954,0,0,1-.554,0c-1.486-.189-2.672-1.173-3.969-1.825a3.519,3.519,0,0,0-2.014-.515l-.248.033a1.644,1.644,0,0,0-.235.078,1.7,1.7,0,0,0-.456.209,4.073,4.073,0,0,0-.763.652,13.127,13.127,0,0,1-1.434,1.525,2.1,2.1,0,0,1-.971.443,1.78,1.78,0,0,1-1.043-.15,3.911,3.911,0,0,1-1.382-1.369,13.107,13.107,0,0,0-1.036-1.421,3.63,3.63,0,0,0-2.77-1.1,4.093,4.093,0,0,0-2.34.945,5.632,5.632,0,0,0-1.362,1.427,2.953,2.953,0,0,0-.528,1.558,1.258,1.258,0,0,1,0-.437,2.888,2.888,0,0,1,.43-1.193,5.579,5.579,0,0,1,1.356-1.479,4.334,4.334,0,0,1,2.444-1.036,3.859,3.859,0,0,1,2.992,1.154,14.033,14.033,0,0,1,1.062,1.434,3.63,3.63,0,0,0,1.264,1.251,1.564,1.564,0,0,0,1.688-.267,14.664,14.664,0,0,0,1.388-1.486,4.254,4.254,0,0,1,.828-.73,2.378,2.378,0,0,1,.521-.241l.274-.091.287-.039a3.911,3.911,0,0,1,2.2.547c1.3.652,2.5,1.636,3.852,1.805a2.8,2.8,0,0,0,1.864-.45c.561-.339,1.069-.769,1.6-1.141a3.207,3.207,0,0,1,3.585-.372c.528.235,1.023.463,1.519.652a10.025,10.025,0,0,0,1.466.365,9.685,9.685,0,0,0,4.517-.365C328.353,397.675,328.868,397.343,328.887,397.375Z" transform="translate(-267.054 -233.174)" fill="#fafafa"/>
      <path id="Path_242" data-name="Path 242" d="M293.31,448.075a.777.777,0,0,1,.2.052l.241.078.339.052a4.08,4.08,0,0,0,2.183-.534,16.508,16.508,0,0,1,3.357-1.466,3.8,3.8,0,0,1,1.128-.059,3.669,3.669,0,0,1,1.141.378,17.056,17.056,0,0,1,2.1,1.473,3.748,3.748,0,0,0,2.5.886,8.969,8.969,0,0,0,2.8-1.01,6.674,6.674,0,0,1,1.551-.515,4.634,4.634,0,0,1,1.695.039c1.134.209,2.2.691,3.317,1a6.961,6.961,0,0,0,3.513.052,25.071,25.071,0,0,0,3.565-1.18,16.446,16.446,0,0,1,3.793-1.095,7.17,7.17,0,0,1,4.021.652c1.264.547,2.418,1.251,3.637,1.74a5.631,5.631,0,0,0,3.722.345c2.431-.7,4.21-2.666,6.518-3.428a5.332,5.332,0,0,1,3.487,0,12.175,12.175,0,0,1,2.913,1.506c.88.58,1.708,1.167,2.548,1.642a9.339,9.339,0,0,0,2.561,1.03,9.646,9.646,0,0,0,4.712-.2,9.776,9.776,0,0,0,3.194-1.636,9.931,9.931,0,0,0,2.086-2.262,1.016,1.016,0,0,1-.1.182l-.319.508a8.656,8.656,0,0,1-1.59,1.675,9.9,9.9,0,0,1-3.226,1.669,9.053,9.053,0,0,1-7.456-.782c-.86-.476-1.688-1.062-2.568-1.629a11.8,11.8,0,0,0-2.855-1.46,5,5,0,0,0-3.291,0,14.128,14.128,0,0,0-3.142,1.714,12.528,12.528,0,0,1-3.4,1.747,6.035,6.035,0,0,1-3.911-.352c-1.251-.508-2.4-1.212-3.643-1.753a6.863,6.863,0,0,0-3.845-.606,16.17,16.17,0,0,0-3.715,1.062,24.725,24.725,0,0,1-3.617,1.193,7.326,7.326,0,0,1-3.663-.072c-1.154-.319-2.2-.8-3.259-1a4.223,4.223,0,0,0-1.59-.046,6.19,6.19,0,0,0-1.486.482,9.19,9.19,0,0,1-2.894,1.017,3.969,3.969,0,0,1-2.666-.952,17.373,17.373,0,0,0-2.053-1.473,3.539,3.539,0,0,0-1.069-.372,3.394,3.394,0,0,0-1.062.039,17.08,17.08,0,0,0-3.324,1.408,4.041,4.041,0,0,1-2.242.476,1.253,1.253,0,0,1-.345-.065l-.235-.1a.924.924,0,0,1-.248-.046Z" transform="translate(-267.454 -250.314)" fill="#fafafa"/>
      <path id="Path_243" data-name="Path 243" d="M295.78,277.65a4.474,4.474,0,0,0,.652.587,5.326,5.326,0,0,0,2.242.978,13.087,13.087,0,0,0,3.911.078c.763-.059,1.584-.137,2.464-.124a7.644,7.644,0,0,1,2.737.489,25.535,25.535,0,0,1,2.7,1.414,9.382,9.382,0,0,0,1.453.652,6.252,6.252,0,0,0,1.61.261,16.1,16.1,0,0,0,3.461-.391,12.782,12.782,0,0,1,3.761-.287,9.184,9.184,0,0,1,3.656,1.519,10,10,0,0,0,3.65,1.623,5.776,5.776,0,0,0,2.027-.137,12.673,12.673,0,0,0,1.955-.743,24.937,24.937,0,0,1,4.041-1.721,5.808,5.808,0,0,1,2.249-.13,6.451,6.451,0,0,1,2.079.776c1.271.717,2.353,1.642,3.6,2.216a6.674,6.674,0,0,0,3.911.482,23.912,23.912,0,0,0,3.774-.978,21.152,21.152,0,0,1,3.656-.88,10.024,10.024,0,0,1,3.546.222,44.536,44.536,0,0,1,5.944,2.2,10,10,0,0,0,5.045.8,11.972,11.972,0,0,0,3.78-.952,7.338,7.338,0,0,0,2.672-1.955,4.118,4.118,0,0,1-.56.652,7,7,0,0,1-2.06,1.408,12.168,12.168,0,0,1-3.813,1.017,11.3,11.3,0,0,1-2.477,0,10.141,10.141,0,0,1-2.672-.743,44.318,44.318,0,0,0-5.925-2.144,9.652,9.652,0,0,0-3.448-.2,22.1,22.1,0,0,0-3.6.886,24.94,24.94,0,0,1-3.813,1,7.091,7.091,0,0,1-4.1-.5c-1.3-.6-2.385-1.538-3.624-2.229a6.119,6.119,0,0,0-1.955-.736,5.383,5.383,0,0,0-2.112.13,24.306,24.306,0,0,0-3.982,1.7,13.122,13.122,0,0,1-2.034.756,5.982,5.982,0,0,1-2.151.137,10.161,10.161,0,0,1-3.774-1.675,8.9,8.9,0,0,0-3.526-1.48c-2.509-.274-4.869.763-7.169.652a6.322,6.322,0,0,1-1.682-.293,9.125,9.125,0,0,1-1.493-.652,26.016,26.016,0,0,0-2.659-1.421,11.346,11.346,0,0,0-5.1-.4,12.931,12.931,0,0,1-3.943-.137,5.214,5.214,0,0,1-2.255-1.056A3.071,3.071,0,0,1,295.78,277.65Z" transform="translate(-268.314 -191.954)" fill="#fafafa"/>
      <g id="Group_96" data-name="Group 96" transform="translate(73.837 93.191)" opacity="0.3">
        <path id="Path_244" data-name="Path 244" d="M369.445,289.15l9.2,6.368c-2.926,7.254-.222,17.324,2.32,25.562.984,3.207,4.25,6.518,4.087,9.894s2.653,9.047-.593,9.894a7.613,7.613,0,0,1-6.283-1.486,17.551,17.551,0,0,1-4.276-5.071C367.437,323.857,364.42,303.86,369.445,289.15Z" transform="translate(-366.927 -289.15)"/>
      </g>
      <path id="Path_245" data-name="Path 245" d="M296.46,441.079a1.185,1.185,0,0,1,.352.039l.991.183,3.637.691c3.07.58,7.326,1.3,12.045,1.955s9.014,1.108,12.123,1.395l3.689.326,1,.1a1.238,1.238,0,0,1,.345.059,1.481,1.481,0,0,1-.352,0l-1-.033c-.88-.039-2.138-.111-3.7-.222-3.115-.228-7.424-.652-12.149-1.3s-8.981-1.44-12.045-2.079c-1.532-.313-2.77-.593-3.617-.8l-.978-.248a1.51,1.51,0,0,1-.339-.065Z" transform="translate(-268.551 -248.865)" fill="#263238"/>
      <path id="Path_246" data-name="Path 246" d="M318.44,424.9a5.306,5.306,0,0,1,.541.117c.352.078.86.248,1.538.371a31.549,31.549,0,0,0,5.755.743,32.354,32.354,0,0,0,8.545-.789A30.894,30.894,0,0,0,352.345,414.4a32.791,32.791,0,0,0,6.329-12.827c.176-.652.248-1.193.339-1.545a2.733,2.733,0,0,1,.13-.534,3.444,3.444,0,0,1-.065.547c-.065.358-.117.893-.28,1.564a29.977,29.977,0,0,1-1.766,5.56,32.163,32.163,0,0,1-4.439,7.43,31.565,31.565,0,0,1-26.331,11.777,29.565,29.565,0,0,1-5.775-.854c-.652-.15-1.18-.339-1.525-.437a2.57,2.57,0,0,1-.521-.183Z" transform="translate(-276.205 -234.383)" fill="#263238"/>
      <path id="Path_247" data-name="Path 247" d="M327.209,262.645a2.083,2.083,0,0,1,0,.476c0,.339,0,.782,0,1.343a19.416,19.416,0,0,0,.5,4.882,8.856,8.856,0,0,0,1.408,3.037,8.707,8.707,0,0,0,2.913,2.47,14.625,14.625,0,0,0,4.028,1.44,18.837,18.837,0,0,0,4.562.443,16.829,16.829,0,0,0,8.473-2.392,13.375,13.375,0,0,0,4.862-5.273,11.875,11.875,0,0,0,1.264-4.706c.046-1.16-.078-1.8-.033-1.805a3.353,3.353,0,0,1,.085.463,9.431,9.431,0,0,1,.085,1.349,11.517,11.517,0,0,1-1.186,4.8,13.452,13.452,0,0,1-4.914,5.436,16.946,16.946,0,0,1-8.623,2.464,19.153,19.153,0,0,1-4.654-.456,14.873,14.873,0,0,1-4.106-1.493,8.858,8.858,0,0,1-2.992-2.607,9.008,9.008,0,0,1-1.414-3.142,18.55,18.55,0,0,1-.4-4.94c0-.587.052-1.043.078-1.349a2.088,2.088,0,0,1,.065-.443Z" transform="translate(-279.2 -186.699)" fill="#263238"/>
      <path id="Path_248" data-name="Path 248" d="M309.537,264.43s-15.858.606-19.625,16.438c-4.36,18.347-1.727,38.565,3.754,48.694l.254-18.041a82.885,82.885,0,0,1,8.818-36.023Z" transform="translate(-265.51 -187.351)" fill="#455a64"/>
      <path id="Path_249" data-name="Path 249" d="M292.523,316.758a3.045,3.045,0,0,1-.039-.554c0-.391,0-.919-.052-1.584a22.811,22.811,0,0,1,0-2.509c.039-.978,0-2.1.111-3.324q.059-.932.117-1.955c.046-.652.13-1.362.2-2.086.124-1.447.358-2.979.58-4.562a97.6,97.6,0,0,1,2.255-10.363,95.934,95.934,0,0,1,3.493-10.011c.652-1.5,1.251-2.926,1.91-4.223.319-.652.606-1.3.919-1.884s.619-1.167.912-1.708c.561-1.095,1.154-2.047,1.642-2.894s.939-1.558,1.3-2.138l.873-1.3a2.953,2.953,0,0,1,.326-.45,4.2,4.2,0,0,1-.267.489l-.808,1.33c-.365.587-.8,1.3-1.271,2.164s-1.049,1.805-1.6,2.907l-.886,1.714c-.306.6-.587,1.238-.9,1.89-.652,1.3-1.232,2.724-1.871,4.217a91,91,0,0,0-5.729,20.309c-.235,1.6-.482,3.128-.613,4.562-.072.723-.163,1.414-.215,2.086s-.1,1.3-.137,1.923c-.111,1.225-.124,2.34-.163,3.311s-.052,1.818-.052,2.509V316.2A3.259,3.259,0,0,1,292.523,316.758Z" transform="translate(-267.136 -187.622)" fill="#263238"/>
      <path id="Path_250" data-name="Path 250" d="M298.624,270.59a1.956,1.956,0,0,1-.189.424c-.156.3-.352.7-.606,1.186-.541,1.017-1.271,2.522-2.125,4.4-.411.952-.886,1.955-1.3,3.109-.215.567-.463,1.147-.652,1.753s-.43,1.238-.652,1.884A73.7,73.7,0,0,0,290.8,291.9a81.98,81.98,0,0,0-1.466,16.027c0,2.066.052,3.735.111,4.888,0,.554.039,1,.046,1.336a1.809,1.809,0,0,1,0,.463,2.887,2.887,0,0,1-.059-.463c0-.332-.065-.776-.111-1.3-.1-1.154-.176-2.829-.222-4.895a76.985,76.985,0,0,1,1.375-16.1,70.18,70.18,0,0,1,2.288-8.616c.228-.652.45-1.271.652-1.884s.476-1.186.7-1.753c.437-1.134.932-2.157,1.356-3.1.88-1.871,1.649-3.363,2.229-4.367l.652-1.154A2.491,2.491,0,0,1,298.624,270.59Z" transform="translate(-265.984 -189.496)" fill="#263238"/>
      <path id="Path_251" data-name="Path 251" d="M388.741,270.527s-10.656,28.991-2.8,53.445l.43,8.649s-6.009-.411-10.552-8.988-6.016-17.441-7.554-30.21,5.455-29.023,5.455-29.023S386.127,267.137,388.741,270.527Z" transform="translate(-293.478 -187.34)" fill="#455a64"/>
      <path id="Path_252" data-name="Path 252" d="M392.367,334.166a.691.691,0,0,1-.156-.078l-.443-.248a8.936,8.936,0,0,1-1.525-1.212,14.293,14.293,0,0,1-3.376-6.263,36.328,36.328,0,0,1-1.043-4.83c-.306-1.753-.554-3.63-.776-5.618a100.019,100.019,0,0,1-.561-12.97,98.493,98.493,0,0,1,1.128-12.938,78.52,78.52,0,0,1,2.216-10.37,31.158,31.158,0,0,1,2.731-6.609,18.924,18.924,0,0,1,1.036-1.649l.293-.4.111-.137a.29.29,0,0,1-.078.156l-.274.424c-.235.378-.574.932-.978,1.675a33.383,33.383,0,0,0-2.607,6.609,82.7,82.7,0,0,0-2.138,10.35,102.877,102.877,0,0,0-1.115,12.911,104.525,104.525,0,0,0,.528,12.931c.215,1.955.456,3.858.743,5.605a39.684,39.684,0,0,0,1.01,4.843,14.514,14.514,0,0,0,3.259,6.238,11.97,11.97,0,0,0,2.014,1.584Z" transform="translate(-299.197 -189.583)" fill="#263238"/>
      <path id="Path_253" data-name="Path 253" d="M387.708,332.117a.548.548,0,0,1-.176-.059l-.508-.209a11.461,11.461,0,0,1-1.786-1.089,19.155,19.155,0,0,1-4.856-5.938,62.623,62.623,0,0,1-4.66-10.428,65.5,65.5,0,0,1-3.083-13.609,67.561,67.561,0,0,1-.169-13.961,64.528,64.528,0,0,1,2.06-11.217c.463-1.558.854-2.979,1.3-4.178s.8-2.262,1.193-3.083.652-1.453.847-1.91c.1-.2.169-.365.228-.5a1.021,1.021,0,0,1,.091-.163.607.607,0,0,1-.059.176l-.2.508c-.189.463-.456,1.108-.789,1.955s-.71,1.89-1.141,3.1-.828,2.607-1.271,4.178a65.428,65.428,0,0,0-1.955,11.178,67.933,67.933,0,0,0,.2,13.9,66.966,66.966,0,0,0,3,13.544,65.071,65.071,0,0,0,4.562,10.389,19.69,19.69,0,0,0,4.725,5.951,12.86,12.86,0,0,0,1.74,1.134l.489.235Z" transform="translate(-294.922 -187.821)" fill="#263238"/>
      <path id="Path_254" data-name="Path 254" d="M387.913,290.64l6.909,1.818-1,2.418-6.5-1.3Z" transform="translate(-300.191 -196.478)" fill="#263238"/>
      <path id="Path_255" data-name="Path 255" d="M388.47,293.5a5.592,5.592,0,0,1,.971-1.16l.117-.124.091.143c.267.417.547.854.834,1.3l-.222-.059.769-.437c.267-.15.528-.3.789-.437l.143-.085.078.143.75,1.375-.176-.046a5.787,5.787,0,0,1,1.356-.6,5.59,5.59,0,0,1-1.232.828l-.111.065-.065-.117c-.261-.424-.528-.873-.808-1.343l.228.065-.789.443-.769.43-.143.078-.078-.137-.782-1.343h.209a6.343,6.343,0,0,1-1.16,1.01Z" transform="translate(-300.592 -197.028)" fill="#1acebb"/>
      <path id="Path_256" data-name="Path 256" d="M284.762,346.776,277.247,332.9H254.363l-.723,1.375,19.371,32.2,21.926,1.056Z" transform="translate(-253.64 -211.194)" fill="#455a64"/>
      <path id="Path_257" data-name="Path 257" d="M395.866,364.022v24.252a14.756,14.756,0,0,1-5.423,11.419h0a14.743,14.743,0,0,1-14.88,2.229L322.17,378.256l5.214-17.806,42.952,14.156-.046-11.041Z" transform="translate(-277.504 -220.788)" fill="#ffbe9d"/>
      <path id="Path_258" data-name="Path 258" d="M284.039,348.886l-7.521-13.876H253.64l18.641,33.579,21.926,1.056Z" transform="translate(-253.64 -211.929)" fill="#263238"/>
      <path id="Path_259" data-name="Path 259" d="M313.9,358.48l-3.617-4.491a12.553,12.553,0,0,0-9.777-4.68H297.33l-2.144,2.405s-15.473.652-16.04,2.607v.978l13.237.886s-11.256-.033-11.934,0-3.142-.189-3.089,1.128c.039,1.088,1.3,1.955,3.259,2.229.8.117,10.552.965,10.552.965l-10.735-.1c-1.206,0-1.056,1.955-.339,2.17.567.189,14.339,4.2,14.339,4.2s-2.314,1.545-4.2,1.414-5.123-2.561-5.794-1.414-.541,1.818-.137,2.086a48.192,48.192,0,0,0,6.335,2.966c1.486.4,13.589,2.32,13.589,2.32l4.367.7Z" transform="translate(-261.9 -216.908)" fill="#ffbe9d"/>
      <path id="Path_260" data-name="Path 260" d="M257.737,343.32s-2.392.834-1.18,3.911a26.312,26.312,0,0,0,4.856,7.691,2.809,2.809,0,0,0,.958,2.75s-1.695.424-.652,3.259a3.22,3.22,0,0,0,2.014,4.237s-.847,2.438,2.223,3.6,6.035-.847,6.035-.847Z" transform="translate(-254.536 -214.822)" fill="#ffbe9d"/>
      <path id="Path_261" data-name="Path 261" d="M265.927,360.75c2.177.587,4.562,1.056,6.576,1.818.652.248,1.3.261,1.76.815a1.519,1.519,0,0,1,.039,1.955,2.118,2.118,0,0,1-1.773.358,31.283,31.283,0,0,1-6.739-1.871" transform="translate(-257.871 -220.892)" fill="#ffbe9d"/>
      <path id="Path_262" data-name="Path 262" d="M267.253,366.32c2.17.587,4.562,1.049,6.57,1.818.652.248,1.3.261,1.76.815a1.519,1.519,0,0,1,.039,1.955,2.144,2.144,0,0,1-1.773.358,31.656,31.656,0,0,1-6.739-1.9" transform="translate(-258.331 -222.832)" fill="#ffbe9d"/>
      <path id="Path_263" data-name="Path 263" d="M269.143,372.05c2.177.587,4.562,1.049,6.576,1.812.652.254,1.3.267,1.753.821a1.512,1.512,0,0,1,.039,1.955,2.1,2.1,0,0,1-1.766.352A31.284,31.284,0,0,1,269,375.113" transform="translate(-258.989 -224.827)" fill="#ffbe9d"/>
      <path id="Path_264" data-name="Path 264" d="M266,365.565c0-.091,1.571.443,3.5.978s3.513.88,3.5.971a12.872,12.872,0,0,1-3.591-.652,13.42,13.42,0,0,1-3.409-1.3Z" transform="translate(-257.944 -222.565)" fill="#eb996e"/>
      <path id="Path_265" data-name="Path 265" d="M265.36,370.48a40.042,40.042,0,0,1,3.976,1.134c2.19.652,3.982,1.1,3.963,1.193A28.464,28.464,0,0,1,265.36,370.48Z" transform="translate(-257.721 -224.28)" fill="#eb996e"/>
      <path id="Path_266" data-name="Path 266" d="M267.55,376.8a21.512,21.512,0,0,1,3.735.756,22.235,22.235,0,0,1,3.656,1.088,21.414,21.414,0,0,1-3.735-.756,21.036,21.036,0,0,1-3.656-1.089Z" transform="translate(-258.484 -226.481)" fill="#eb996e"/>
      <path id="Path_267" data-name="Path 267" d="M263.22,360.065c0-.1,1.955.554,4.386,1.18s4.419.991,4.406,1.095a5.335,5.335,0,0,1-1.3-.111,31.5,31.5,0,0,1-3.155-.652,30,30,0,0,1-3.083-.958,5.005,5.005,0,0,1-1.251-.554Z" transform="translate(-256.976 -220.65)" fill="#eb996e"/>
      <path id="Path_268" data-name="Path 268" d="M296.63,353.193a85.877,85.877,0,0,1,10.885-.072,89.155,89.155,0,0,1-10.885.072Z" transform="translate(-268.61 -218.177)" fill="#eb996e"/>
      <path id="Path_269" data-name="Path 269" d="M271.23,342.908a1.147,1.147,0,1,0-.424-.772A1.147,1.147,0,0,0,271.23,342.908Z" transform="translate(-259.615 -213.968)" fill="#ebebeb"/>
      <path id="Path_270" data-name="Path 270" d="M391.8,381.207a1.357,1.357,0,0,1,.528.059,10.328,10.328,0,0,1,1.4.352,16.079,16.079,0,0,1,7.736,5.371,10.95,10.95,0,0,1,.821,1.186c.176.293.261.456.241.469s-.463-.593-1.251-1.506a18.406,18.406,0,0,0-7.626-5.292C392.517,381.429,391.787,381.259,391.8,381.207Z" transform="translate(-301.751 -228.014)" fill="#eb996e"/>
      <path id="Path_271" data-name="Path 271" d="M335.211,243.441h0A13.068,13.068,0,0,1,323.2,229.754c.241-4.953.5-9.418.5-9.418s-10.624-1.655-10.754-12.266,1.714-35,1.714-35h0a36.9,36.9,0,0,1,37.073,4.667l1.571,1.206L349.283,231.4a13.075,13.075,0,0,1-14.072,12.038Z" transform="translate(-274.29 -154.493)" fill="#ffbe9d"/>
      <path id="Path_272" data-name="Path 272" d="M329.406,244.911A24.676,24.676,0,0,0,343.243,241s-3.259,7.639-13.863,6.681Z" transform="translate(-280.015 -179.192)" fill="#eb996e"/>
      <path id="Path_273" data-name="Path 273" d="M319.6,199.476a1.512,1.512,0,0,0,1.46,1.532,1.453,1.453,0,0,0,1.564-1.369,1.525,1.525,0,0,0-1.46-1.532,1.453,1.453,0,0,0-1.564,1.369Z" transform="translate(-276.609 -164.254)" fill="#263238"/>
      <path id="Path_274" data-name="Path 274" d="M318.647,196.761c.189.2,1.3-.652,2.966-.652s2.829.821,3,.652c.085-.091-.1-.45-.652-.828a4.2,4.2,0,0,0-2.405-.743,4.015,4.015,0,0,0-2.359.763C318.726,196.311,318.556,196.669,318.647,196.761Z" transform="translate(-276.269 -163.239)" fill="#263238"/>
      <path id="Path_275" data-name="Path 275" d="M343.2,200.066a1.519,1.519,0,0,0,1.46,1.532,1.447,1.447,0,0,0,1.564-1.369,1.519,1.519,0,0,0-1.46-1.532,1.447,1.447,0,0,0-1.564,1.369Z" transform="translate(-284.827 -164.459)" fill="#263238"/>
      <path id="Path_276" data-name="Path 276" d="M343.247,197.234c.189.2,1.343-.652,2.972-.652s2.822.821,3,.652c.085-.085-.1-.443-.652-.821a4.145,4.145,0,0,0-2.405-.743,4.008,4.008,0,0,0-2.366.763C343.326,196.784,343.156,197.143,343.247,197.234Z" transform="translate(-284.836 -163.406)" fill="#263238"/>
      <path id="Path_277" data-name="Path 277" d="M331.97,209.365a11.045,11.045,0,0,0-2.653-.476c-.417-.046-.808-.13-.88-.411a2.125,2.125,0,0,1,.28-1.238l1.232-3.174c1.708-4.517,2.946-8.225,2.763-8.3s-1.714,3.539-3.428,8.056q-.613,1.669-1.18,3.194a2.445,2.445,0,0,0-.215,1.636,1.03,1.03,0,0,0,.684.606,2.717,2.717,0,0,0,.71.1A10.66,10.66,0,0,0,331.97,209.365Z" transform="translate(-279.477 -163.441)" fill="#263238"/>
      <path id="Path_278" data-name="Path 278" d="M338.771,218.36c-.267,0-.274,1.753-1.786,3.011s-3.4,1.062-3.415,1.3c0,.111.417.345,1.219.365a4.4,4.4,0,0,0,2.848-.991,3.82,3.82,0,0,0,1.382-2.529C339.064,218.777,338.888,218.347,338.771,218.36Z" transform="translate(-281.474 -171.307)" fill="#263238"/>
      <path id="Path_279" data-name="Path 279" d="M342.615,187.6c.156.443,1.786.228,3.7.463s3.461.75,3.715.352c.111-.189-.156-.606-.782-1.036a6.179,6.179,0,0,0-2.75-.965,6.29,6.29,0,0,0-2.9.339C342.9,187.042,342.543,187.388,342.615,187.6Z" transform="translate(-284.621 -160.169)" fill="#263238"/>
      <path id="Path_280" data-name="Path 280" d="M319.557,189.465c.287.372,1.408,0,2.763,0s2.5.254,2.757-.137c.117-.189-.065-.561-.567-.906a3.969,3.969,0,0,0-4.445.137C319.589,188.9,319.427,189.289,319.557,189.465Z" transform="translate(-276.579 -160.668)" fill="#263238"/>
      <path id="Path_281" data-name="Path 281" d="M372.647,200.381c.176-.078,7.293-2.157,7.059,5.1s-7.469,5.527-7.476,5.318S372.647,200.381,372.647,200.381Z" transform="translate(-294.937 -164.931)" fill="#ffbe9d"/>
      <path id="Path_282" data-name="Path 282" d="M375.766,209.394c.033,0,.124.091.332.2a1.245,1.245,0,0,0,.945.052,3.127,3.127,0,0,0,1.538-2.757,4.126,4.126,0,0,0-.3-1.825,1.46,1.46,0,0,0-.919-1,.652.652,0,0,0-.756.326c-.1.2-.065.345-.1.358s-.15-.13-.085-.424a.86.86,0,0,1,.306-.45.971.971,0,0,1,.7-.163,1.8,1.8,0,0,1,1.3,1.173,4.283,4.283,0,0,1,.372,2.034c-.091,1.46-.886,2.809-1.955,3.076a1.369,1.369,0,0,1-1.154-.228C375.772,209.57,375.74,209.407,375.766,209.394Z" transform="translate(-296.165 -166.2)" fill="#eb996e"/>
      <path id="Path_283" data-name="Path 283" d="M308.8,155.581a11.23,11.23,0,0,1,17.435-3.35,10.989,10.989,0,0,1,18.061-2.346c2.033,2.307,3.089,5.442,5.475,7.385,2.06,1.675,4.862,2.236,6.935,3.911a8.017,8.017,0,0,1-2.861,13.974,8.6,8.6,0,0,1-4.236,11.686l-1.056-.437a15.108,15.108,0,0,1-2.17-16.679,3.793,3.793,0,0,1-.385,0,8.473,8.473,0,0,1-11.041-2.522,9.425,9.425,0,0,1-10.115.424,3.91,3.91,0,0,0-1.525-.691,3.637,3.637,0,0,0-1.9.567,8.929,8.929,0,0,1-5.136,1.036,4.947,4.947,0,0,1-3.858-2.757.814.814,0,0,1-.124,0,5.7,5.7,0,0,1-4.25-4.113A8.519,8.519,0,0,1,308.8,155.581Z" transform="translate(-272.497 -146.168)" fill="#263238"/>
    </g>
  </g>
</svg>
